<svg version="1.1" xmlns="http://www.w3.org/2000/svg" xmlns:xlink="http://www.w3.org/1999/xlink" width="1105.17724609375" height="398"><defs/><g><text fill="#eeeeee" stroke="none" font-family="Arial" font-size="24px" font-style="normal" font-weight="normal" text-decoration="none" x="0" y="0"> </text><text fill="#eeeeee" stroke="none" font-family="Arial" font-size="24px" font-style="normal" font-weight="normal" text-decoration="none" x="0" y="30"> </text><text fill="#eeeeee" stroke="none" font-family="Arial" font-size="24px" font-style="normal" font-weight="normal" text-decoration="none" x="0" y="60"> </text><text fill="#eeeeee" stroke="none" font-family="Arial" font-size="24px" font-style="normal" font-weight="normal" text-decoration="none" x="0" y="90"> </text><text fill="#eeeeee" stroke="none" font-family="Arial" font-size="24px" font-style="normal" font-weight="normal" text-decoration="none" x="0" y="120"> </text><text fill="#eeeeee" stroke="none" font-family="Arial" font-size="24px" font-style="normal" font-weight="normal" text-decoration="none" x="0" y="150"> </text><text fill="#eeeeee" stroke="none" font-family="Arial" font-size="24px" font-style="normal" font-weight="normal" text-decoration="none" x="0" y="180"> </text><text fill="#eeeeee" stroke="none" font-family="Arial" font-size="24px" font-style="normal" font-weight="normal" text-decoration="none" x="0" y="210"> </text><text fill="#eeeeee" stroke="none" font-family="Arial" font-size="24px" font-style="normal" font-weight="normal" text-decoration="none" x="0" y="240"> </text><text fill="#eeeeee" stroke="none" font-family="Arial" font-size="24px" font-style="normal" font-weight="normal" text-decoration="none" x="0" y="270"> </text><text fill="#eeeeee" stroke="none" font-family="Arial" font-size="24px" font-style="normal" font-weight="normal" text-decoration="none" x="0" y="300"> </text><text fill="#eeeeee" stroke="none" font-family="Arial" font-size="24px" font-style="normal" font-weight="normal" text-decoration="none" x="0" y="330"> </text><text fill="#eeeeee" stroke="none" font-family="Arial" font-size="24px" font-style="normal" font-weight="normal" text-decoration="none" x="0" y="360"> </text><text fill="#eeeeee" stroke="none" font-family="Arial" font-size="24px" font-style="normal" font-weight="normal" text-decoration="none" x="0" y="390"> </text><text fill="#eeeeee" stroke="none" font-family="Arial" font-size="24px" font-style="normal" font-weight="normal" text-decoration="none" x="200" y="0"> </text><text fill="#eeeeee" stroke="none" font-family="Arial" font-size="24px" font-style="normal" font-weight="normal" text-decoration="none" x="200" y="30"> </text><text fill="#eeeeee" stroke="none" font-family="Arial" font-size="24px" font-style="normal" font-weight="normal" text-decoration="none" x="200" y="60"> </text><text fill="#eeeeee" stroke="none" font-family="Arial" font-size="24px" font-style="normal" font-weight="normal" text-decoration="none" x="200" y="90"> </text><text fill="#eeeeee" stroke="none" font-family="Arial" font-size="24px" font-style="normal" font-weight="normal" text-decoration="none" x="200" y="120"> </text><text fill="#eeeeee" stroke="none" font-family="Arial" font-size="24px" font-style="normal" font-weight="normal" text-decoration="none" x="200" y="150"> </text><text fill="#eeeeee" stroke="none" font-family="Arial" font-size="24px" font-style="normal" font-weight="normal" text-decoration="none" x="200" y="180"> </text><text fill="#eeeeee" stroke="none" font-family="Arial" font-size="24px" font-style="normal" font-weight="normal" text-decoration="none" x="200" y="210"> </text><text fill="#eeeeee" stroke="none" font-family="Arial" font-size="24px" font-style="normal" font-weight="normal" text-decoration="none" x="200" y="240"> </text><text fill="#eeeeee" stroke="none" font-family="Arial" font-size="24px" font-style="normal" font-weight="normal" text-decoration="none" x="200" y="270"> </text><text fill="#eeeeee" stroke="none" font-family="Arial" font-size="24px" font-style="normal" font-weight="normal" text-decoration="none" x="200" y="300"> </text><text fill="#eeeeee" stroke="none" font-family="Arial" font-size="24px" font-style="normal" font-weight="normal" text-decoration="none" x="200" y="330"> </text><text fill="#eeeeee" stroke="none" font-family="Arial" font-size="24px" font-style="normal" font-weight="normal" text-decoration="none" x="200" y="360"> </text><text fill="#eeeeee" stroke="none" font-family="Arial" font-size="24px" font-style="normal" font-weight="normal" text-decoration="none" x="200" y="390"> </text><text fill="#eeeeee" stroke="none" font-family="Arial" font-size="24px" font-style="normal" font-weight="normal" text-decoration="none" x="400" y="0"> </text><text fill="#eeeeee" stroke="none" font-family="Arial" font-size="24px" font-style="normal" font-weight="normal" text-decoration="none" x="400" y="30"> </text><text fill="#eeeeee" stroke="none" font-family="Arial" font-size="24px" font-style="normal" font-weight="normal" text-decoration="none" x="400" y="60"> </text><text fill="#eeeeee" stroke="none" font-family="Arial" font-size="24px" font-style="normal" font-weight="normal" text-decoration="none" x="400" y="90"> </text><text fill="#eeeeee" stroke="none" font-family="Arial" font-size="24px" font-style="normal" font-weight="normal" text-decoration="none" x="400" y="120"> </text><text fill="#eeeeee" stroke="none" font-family="Arial" font-size="24px" font-style="normal" font-weight="normal" text-decoration="none" x="400" y="150"> </text><text fill="#eeeeee" stroke="none" font-family="Arial" font-size="24px" font-style="normal" font-weight="normal" text-decoration="none" x="400" y="180"> </text><text fill="#eeeeee" stroke="none" font-family="Arial" font-size="24px" font-style="normal" font-weight="normal" text-decoration="none" x="400" y="210"> </text><text fill="#eeeeee" stroke="none" font-family="Arial" font-size="24px" font-style="normal" font-weight="normal" text-decoration="none" x="400" y="240"> </text><text fill="#eeeeee" stroke="none" font-family="Arial" font-size="24px" font-style="normal" font-weight="normal" text-decoration="none" x="400" y="270"> </text><text fill="#eeeeee" stroke="none" font-family="Arial" font-size="24px" font-style="normal" font-weight="normal" text-decoration="none" x="400" y="300"> </text><text fill="#eeeeee" stroke="none" font-family="Arial" font-size="24px" font-style="normal" font-weight="normal" text-decoration="none" x="400" y="330"> </text><text fill="#eeeeee" stroke="none" font-family="Arial" font-size="24px" font-style="normal" font-weight="normal" text-decoration="none" x="400" y="360"> </text><text fill="#eeeeee" stroke="none" font-family="Arial" font-size="24px" font-style="normal" font-weight="normal" text-decoration="none" x="400" y="390"> </text><text fill="#eeeeee" stroke="none" font-family="Arial" font-size="24px" font-style="normal" font-weight="normal" text-decoration="none" x="600" y="0"> </text><text fill="#eeeeee" stroke="none" font-family="Arial" font-size="24px" font-style="normal" font-weight="normal" text-decoration="none" x="600" y="30"> </text><text fill="#eeeeee" stroke="none" font-family="Arial" font-size="24px" font-style="normal" font-weight="normal" text-decoration="none" x="600" y="60"> </text><text fill="#eeeeee" stroke="none" font-family="Arial" font-size="24px" font-style="normal" font-weight="normal" text-decoration="none" x="600" y="90"> </text><text fill="#eeeeee" stroke="none" font-family="Arial" font-size="24px" font-style="normal" font-weight="normal" text-decoration="none" x="600" y="120"> </text><text fill="#eeeeee" stroke="none" font-family="Arial" font-size="24px" font-style="normal" font-weight="normal" text-decoration="none" x="600" y="150"> </text><text fill="#eeeeee" stroke="none" font-family="Arial" font-size="24px" font-style="normal" font-weight="normal" text-decoration="none" x="600" y="180"> </text><text fill="#eeeeee" stroke="none" font-family="Arial" font-size="24px" font-style="normal" font-weight="normal" text-decoration="none" x="600" y="210"> </text><text fill="#eeeeee" stroke="none" font-family="Arial" font-size="24px" font-style="normal" font-weight="normal" text-decoration="none" x="600" y="240"> </text><text fill="#eeeeee" stroke="none" font-family="Arial" font-size="24px" font-style="normal" font-weight="normal" text-decoration="none" x="600" y="270"> </text><text fill="#eeeeee" stroke="none" font-family="Arial" font-size="24px" font-style="normal" font-weight="normal" text-decoration="none" x="600" y="300"> </text><text fill="#eeeeee" stroke="none" font-family="Arial" font-size="24px" font-style="normal" font-weight="normal" text-decoration="none" x="600" y="330"> </text><text fill="#eeeeee" stroke="none" font-family="Arial" font-size="24px" font-style="normal" font-weight="normal" text-decoration="none" x="600" y="360"> </text><text fill="#eeeeee" stroke="none" font-family="Arial" font-size="24px" font-style="normal" font-weight="normal" text-decoration="none" x="600" y="390"> </text><text fill="#eeeeee" stroke="none" font-family="Arial" font-size="24px" font-style="normal" font-weight="normal" text-decoration="none" x="800" y="0"> </text><text fill="#eeeeee" stroke="none" font-family="Arial" font-size="24px" font-style="normal" font-weight="normal" text-decoration="none" x="800" y="30"> </text><text fill="#eeeeee" stroke="none" font-family="Arial" font-size="24px" font-style="normal" font-weight="normal" text-decoration="none" x="800" y="60"> </text><text fill="#eeeeee" stroke="none" font-family="Arial" font-size="24px" font-style="normal" font-weight="normal" text-decoration="none" x="800" y="90"> </text><text fill="#eeeeee" stroke="none" font-family="Arial" font-size="24px" font-style="normal" font-weight="normal" text-decoration="none" x="800" y="120"> </text><text fill="#eeeeee" stroke="none" font-family="Arial" font-size="24px" font-style="normal" font-weight="normal" text-decoration="none" x="800" y="150"> </text><text fill="#eeeeee" stroke="none" font-family="Arial" font-size="24px" font-style="normal" font-weight="normal" text-decoration="none" x="800" y="180"> </text><text fill="#eeeeee" stroke="none" font-family="Arial" font-size="24px" font-style="normal" font-weight="normal" text-decoration="none" x="800" y="210"> </text><text fill="#eeeeee" stroke="none" font-family="Arial" font-size="24px" font-style="normal" font-weight="normal" text-decoration="none" x="800" y="240"> </text><text fill="#eeeeee" stroke="none" font-family="Arial" font-size="24px" font-style="normal" font-weight="normal" text-decoration="none" x="800" y="270"> </text><text fill="#eeeeee" stroke="none" font-family="Arial" font-size="24px" font-style="normal" font-weight="normal" text-decoration="none" x="800" y="300"> </text><text fill="#eeeeee" stroke="none" font-family="Arial" font-size="24px" font-style="normal" font-weight="normal" text-decoration="none" x="800" y="330"> </text><text fill="#eeeeee" stroke="none" font-family="Arial" font-size="24px" font-style="normal" font-weight="normal" text-decoration="none" x="800" y="360"> </text><text fill="#eeeeee" stroke="none" font-family="Arial" font-size="24px" font-style="normal" font-weight="normal" text-decoration="none" x="800" y="390"> </text><text fill="#eeeeee" stroke="none" font-family="Arial" font-size="24px" font-style="normal" font-weight="normal" text-decoration="none" x="1000" y="0"> </text><text fill="#eeeeee" stroke="none" font-family="Arial" font-size="24px" font-style="normal" font-weight="normal" text-decoration="none" x="1000" y="30"> </text><text fill="#eeeeee" stroke="none" font-family="Arial" font-size="24px" font-style="normal" font-weight="normal" text-decoration="none" x="1000" y="60"> </text><text fill="#eeeeee" stroke="none" font-family="Arial" font-size="24px" font-style="normal" font-weight="normal" text-decoration="none" x="1000" y="90"> </text><text fill="#eeeeee" stroke="none" font-family="Arial" font-size="24px" font-style="normal" font-weight="normal" text-decoration="none" x="1000" y="120"> </text><text fill="#eeeeee" stroke="none" font-family="Arial" font-size="24px" font-style="normal" font-weight="normal" text-decoration="none" x="1000" y="150"> </text><text fill="#eeeeee" stroke="none" font-family="Arial" font-size="24px" font-style="normal" font-weight="normal" text-decoration="none" x="1000" y="180"> </text><text fill="#eeeeee" stroke="none" font-family="Arial" font-size="24px" font-style="normal" font-weight="normal" text-decoration="none" x="1000" y="210"> </text><text fill="#eeeeee" stroke="none" font-family="Arial" font-size="24px" font-style="normal" font-weight="normal" text-decoration="none" x="1000" y="240"> </text><text fill="#eeeeee" stroke="none" font-family="Arial" font-size="24px" font-style="normal" font-weight="normal" text-decoration="none" x="1000" y="270"> </text><text fill="#eeeeee" stroke="none" font-family="Arial" font-size="24px" font-style="normal" font-weight="normal" text-decoration="none" x="1000" y="300"> </text><text fill="#eeeeee" stroke="none" font-family="Arial" font-size="24px" font-style="normal" font-weight="normal" text-decoration="none" x="1000" y="330"> </text><text fill="#eeeeee" stroke="none" font-family="Arial" font-size="24px" font-style="normal" font-weight="normal" text-decoration="none" x="1000" y="360"> </text><text fill="#eeeeee" stroke="none" font-family="Arial" font-size="24px" font-style="normal" font-weight="normal" text-decoration="none" x="1000" y="390"> </text><g transform="translate(-262,-133) scale(1,1)"><rect fill="#C0C0C0" stroke="none" x="298" y="150" width="88.94873046875" height="57" opacity="0.2"/></g><g transform="translate(-262,-133) scale(1,1)"><rect fill="#ffffff" stroke="none" x="291" y="143" width="88.94873046875" height="57"/></g><g transform="translate(-262,-133) scale(1,1)"><path fill="none" stroke="#000000" d="M 291 143 L 379.94873046875 143 L 379.94873046875 200 L 291 200 L 291 143 Z Z" stroke-miterlimit="10"/></g><g transform="translate(-262,-133) scale(1,1)"><path fill="none" stroke="#000000" d="M 291 181 L 379.94873046875 181" stroke-miterlimit="10"/></g><g transform="translate(-262,-133) scale(1,1)"><path fill="none" stroke="#000000" d="M 291 191 L 379.94873046875 191" stroke-miterlimit="10"/></g><g transform="translate(-262,-133) scale(1,1)"><g><path fill="none" stroke="none"/><text fill="#000000" stroke="none" font-family="Arial" font-size="13px" font-style="normal" font-weight="normal" text-decoration="none" x="301.139892578125" y="160.5">«boundary»</text></g></g><g transform="translate(-262,-133) scale(1,1)"><g><path fill="none" stroke="none"/><text fill="#000000" stroke="none" font-family="Arial" font-size="13px" font-style="normal" font-weight="bold" text-decoration="none" x="296.947265625" y="175.5">WelcomeGUI</text></g></g><g transform="translate(-262,-133) scale(1,1)"><rect fill="#C0C0C0" stroke="none" x="827" y="150" width="77.6689453125" height="57" opacity="0.2"/></g><g transform="translate(-262,-133) scale(1,1)"><rect fill="#ffffff" stroke="none" x="820" y="143" width="77.6689453125" height="57"/></g><g transform="translate(-262,-133) scale(1,1)"><path fill="none" stroke="#000000" d="M 820 143 L 897.6689453125 143 L 897.6689453125 200 L 820 200 L 820 143 Z Z" stroke-miterlimit="10"/></g><g transform="translate(-262,-133) scale(1,1)"><path fill="none" stroke="#000000" d="M 820 181 L 897.6689453125 181" stroke-miterlimit="10"/></g><g transform="translate(-262,-133) scale(1,1)"><path fill="none" stroke="#000000" d="M 820 191 L 897.6689453125 191" stroke-miterlimit="10"/></g><g transform="translate(-262,-133) scale(1,1)"><g><path fill="none" stroke="none"/><text fill="#000000" stroke="none" font-family="Arial" font-size="13px" font-style="normal" font-weight="normal" text-decoration="none" x="824.5" y="160.5">«boundary»</text></g></g><g transform="translate(-262,-133) scale(1,1)"><g><path fill="none" stroke="none"/><text fill="#000000" stroke="none" font-family="Arial" font-size="13px" font-style="normal" font-weight="bold" text-decoration="none" x="826.68994140625" y="175.5">RoomsGUI</text></g></g><g transform="translate(-262,-133) scale(1,1)"><rect fill="#C0C0C0" stroke="none" x="495" y="150" width="77.6689453125" height="57" opacity="0.2"/></g><g transform="translate(-262,-133) scale(1,1)"><rect fill="#ffffff" stroke="none" x="488" y="143" width="77.6689453125" height="57"/></g><g transform="translate(-262,-133) scale(1,1)"><path fill="none" stroke="#000000" d="M 488 143 L 565.6689453125 143 L 565.6689453125 200 L 488 200 L 488 143 Z Z" stroke-miterlimit="10"/></g><g transform="translate(-262,-133) scale(1,1)"><path fill="none" stroke="#000000" d="M 488 181 L 565.6689453125 181" stroke-miterlimit="10"/></g><g transform="translate(-262,-133) scale(1,1)"><path fill="none" stroke="#000000" d="M 488 191 L 565.6689453125 191" stroke-miterlimit="10"/></g><g transform="translate(-262,-133) scale(1,1)"><g><path fill="none" stroke="none"/><text fill="#000000" stroke="none" font-family="Arial" font-size="13px" font-style="normal" font-weight="normal" text-decoration="none" x="492.5" y="160.5">«boundary»</text></g></g><g transform="translate(-262,-133) scale(1,1)"><g><path fill="none" stroke="none"/><text fill="#000000" stroke="none" font-family="Arial" font-size="13px" font-style="normal" font-weight="bold" text-decoration="none" x="501.548583984375" y="175.5">ChatGUI</text></g></g><g transform="translate(-262,-133) scale(1,1)"><rect fill="#C0C0C0" stroke="none" x="1262" y="415" width="102.17724609375" height="57" opacity="0.2"/></g><g transform="translate(-262,-133) scale(1,1)"><rect fill="#ffffff" stroke="none" x="1255" y="408" width="102.17724609375" height="57"/></g><g transform="translate(-262,-133) scale(1,1)"><path fill="none" stroke="#000000" d="M 1255 408 L 1357.17724609375 408 L 1357.17724609375 465 L 1255 465 L 1255 408 Z Z" stroke-miterlimit="10"/></g><g transform="translate(-262,-133) scale(1,1)"><path fill="none" stroke="#000000" d="M 1255 446 L 1357.17724609375 446" stroke-miterlimit="10"/></g><g transform="translate(-262,-133) scale(1,1)"><path fill="none" stroke="#000000" d="M 1255 456 L 1357.17724609375 456" stroke-miterlimit="10"/></g><g transform="translate(-262,-133) scale(1,1)"><g><path fill="none" stroke="none"/><text fill="#000000" stroke="none" font-family="Arial" font-size="13px" font-style="normal" font-weight="normal" text-decoration="none" x="1271.754150390625" y="425.5">«boundary»</text></g></g><g transform="translate(-262,-133) scale(1,1)"><g><path fill="none" stroke="none"/><text fill="#000000" stroke="none" font-family="Arial" font-size="13px" font-style="normal" font-weight="bold" text-decoration="none" x="1275.746826171875" y="440.5">NewRoom</text></g></g><g transform="translate(-262,-133) scale(1,1)"><rect fill="#C0C0C0" stroke="none" x="951" y="191" width="77.6689453125" height="57" opacity="0.2"/></g><g transform="translate(-262,-133) scale(1,1)"><rect fill="#ffffff" stroke="none" x="944" y="184" width="77.6689453125" height="57"/></g><g transform="translate(-262,-133) scale(1,1)"><path fill="none" stroke="#000000" d="M 944 184 L 1021.6689453125 184 L 1021.6689453125 241 L 944 241 L 944 184 Z Z" stroke-miterlimit="10"/></g><g transform="translate(-262,-133) scale(1,1)"><path fill="none" stroke="#000000" d="M 944 222 L 1021.6689453125 222" stroke-miterlimit="10"/></g><g transform="translate(-262,-133) scale(1,1)"><path fill="none" stroke="#000000" d="M 944 232 L 1021.6689453125 232" stroke-miterlimit="10"/></g><g transform="translate(-262,-133) scale(1,1)"><g><path fill="none" stroke="none"/><text fill="#000000" stroke="none" font-family="Arial" font-size="13px" font-style="normal" font-weight="normal" text-decoration="none" x="948.5" y="201.5">«boundary»</text></g></g><g transform="translate(-262,-133) scale(1,1)"><g><path fill="none" stroke="none"/><text fill="#000000" stroke="none" font-family="Arial" font-size="13px" font-style="normal" font-weight="bold" text-decoration="none" x="966.574951171875" y="216.5">Menu</text></g></g><g transform="translate(-262,-133) scale(1,1)"><rect fill="#C0C0C0" stroke="none" x="1132" y="415" width="100.0380859375" height="57" opacity="0.2"/></g><g transform="translate(-262,-133) scale(1,1)"><rect fill="#ffffff" stroke="none" x="1125" y="408" width="100.0380859375" height="57"/></g><g transform="translate(-262,-133) scale(1,1)"><path fill="none" stroke="#000000" d="M 1125 408 L 1225.0380859375 408 L 1225.0380859375 465 L 1125 465 L 1125 408 Z Z" stroke-miterlimit="10"/></g><g transform="translate(-262,-133) scale(1,1)"><path fill="none" stroke="#000000" d="M 1125 446 L 1225.0380859375 446" stroke-miterlimit="10"/></g><g transform="translate(-262,-133) scale(1,1)"><path fill="none" stroke="#000000" d="M 1125 456 L 1225.0380859375 456" stroke-miterlimit="10"/></g><g transform="translate(-262,-133) scale(1,1)"><g><path fill="none" stroke="none"/><text fill="#000000" stroke="none" font-family="Arial" font-size="13px" font-style="normal" font-weight="normal" text-decoration="none" x="1140.6845703125" y="425.5">«boundary»</text></g></g><g transform="translate(-262,-133) scale(1,1)"><g><path fill="none" stroke="none"/><text fill="#000000" stroke="none" font-family="Arial" font-size="13px" font-style="normal" font-weight="bold" text-decoration="none" x="1146.121337890625" y="440.5">Nickname</text></g></g><g transform="translate(-262,-133) scale(1,1)"><rect fill="#C0C0C0" stroke="none" x="983" y="415" width="120.96630859375" height="57" opacity="0.2"/></g><g transform="translate(-262,-133) scale(1,1)"><rect fill="#ffffff" stroke="none" x="976" y="408" width="120.96630859375" height="57"/></g><g transform="translate(-262,-133) scale(1,1)"><path fill="none" stroke="#000000" d="M 976 408 L 1096.96630859375 408 L 1096.96630859375 465 L 976 465 L 976 408 Z Z" stroke-miterlimit="10"/></g><g transform="translate(-262,-133) scale(1,1)"><path fill="none" stroke="#000000" d="M 976 446 L 1096.96630859375 446" stroke-miterlimit="10"/></g><g transform="translate(-262,-133) scale(1,1)"><path fill="none" stroke="#000000" d="M 976 456 L 1096.96630859375 456" stroke-miterlimit="10"/></g><g transform="translate(-262,-133) scale(1,1)"><g><path fill="none" stroke="none"/><text fill="#000000" stroke="none" font-family="Arial" font-size="13px" font-style="normal" font-weight="normal" text-decoration="none" x="1002.148681640625" y="425.5">«boundary»</text></g></g><g transform="translate(-262,-133) scale(1,1)"><g><path fill="none" stroke="none"/><text fill="#000000" stroke="none" font-family="Arial" font-size="13px" font-style="normal" font-weight="bold" text-decoration="none" x="997.82275390625" y="440.5">EnterByCode</text></g></g><g transform="translate(-262,-133) scale(1,1)"><rect fill="#C0C0C0" stroke="none" x="279" y="274" width="127.94873046875" height="57" opacity="0.2"/></g><g transform="translate(-262,-133) scale(1,1)"><rect fill="#ffffff" stroke="none" x="272" y="267" width="127.94873046875" height="57"/></g><g transform="translate(-262,-133) scale(1,1)"><path fill="none" stroke="#000000" d="M 272 267 L 399.94873046875 267 L 399.94873046875 324 L 272 324 L 272 267 Z Z" stroke-miterlimit="10"/></g><g transform="translate(-262,-133) scale(1,1)"><path fill="none" stroke="#000000" d="M 272 305 L 399.94873046875 305" stroke-miterlimit="10"/></g><g transform="translate(-262,-133) scale(1,1)"><path fill="none" stroke="#000000" d="M 272 315 L 399.94873046875 315" stroke-miterlimit="10"/></g><g transform="translate(-262,-133) scale(1,1)"><g><path fill="none" stroke="none"/><text fill="#000000" stroke="none" font-family="Arial" font-size="13px" font-style="normal" font-weight="normal" text-decoration="none" x="302.01123046875" y="284.5">«controller»</text></g></g><g transform="translate(-262,-133) scale(1,1)"><g><path fill="none" stroke="none"/><text fill="#000000" stroke="none" font-family="Arial" font-size="13px" font-style="normal" font-weight="bold" text-decoration="none" x="280.825927734375" y="299.5">WelcomeController</text></g></g><g transform="translate(-262,-133) scale(1,1)"><rect fill="#C0C0C0" stroke="none" x="808" y="274" width="115.1708984375" height="57" opacity="0.2"/></g><g transform="translate(-262,-133) scale(1,1)"><rect fill="#ffffff" stroke="none" x="801" y="267" width="115.1708984375" height="57"/></g><g transform="translate(-262,-133) scale(1,1)"><path fill="none" stroke="#000000" d="M 801 267 L 916.1708984375 267 L 916.1708984375 324 L 801 324 L 801 267 Z Z" stroke-miterlimit="10"/></g><g transform="translate(-262,-133) scale(1,1)"><path fill="none" stroke="#000000" d="M 801 305 L 916.1708984375 305" stroke-miterlimit="10"/></g><g transform="translate(-262,-133) scale(1,1)"><path fill="none" stroke="#000000" d="M 801 315 L 916.1708984375 315" stroke-miterlimit="10"/></g><g transform="translate(-262,-133) scale(1,1)"><g><path fill="none" stroke="none"/><text fill="#000000" stroke="none" font-family="Arial" font-size="13px" font-style="normal" font-weight="normal" text-decoration="none" x="824.622314453125" y="284.5">«controller»</text></g></g><g transform="translate(-262,-133) scale(1,1)"><g><path fill="none" stroke="none"/><text fill="#000000" stroke="none" font-family="Arial" font-size="13px" font-style="normal" font-weight="bold" text-decoration="none" x="809.819580078125" y="299.5">RoomsController</text></g></g><g transform="translate(-262,-133) scale(1,1)"><rect fill="#C0C0C0" stroke="none" x="484" y="274" width="100" height="57" opacity="0.2"/></g><g transform="translate(-262,-133) scale(1,1)"><rect fill="#ffffff" stroke="none" x="477" y="267" width="100" height="57"/></g><g transform="translate(-262,-133) scale(1,1)"><path fill="none" stroke="#000000" d="M 477 267 L 577 267 L 577 324 L 477 324 L 477 267 Z Z" stroke-miterlimit="10"/></g><g transform="translate(-262,-133) scale(1,1)"><path fill="none" stroke="#000000" d="M 477 305 L 577 305" stroke-miterlimit="10"/></g><g transform="translate(-262,-133) scale(1,1)"><path fill="none" stroke="#000000" d="M 477 315 L 577 315" stroke-miterlimit="10"/></g><g transform="translate(-262,-133) scale(1,1)"><g><path fill="none" stroke="none"/><text fill="#000000" stroke="none" font-family="Arial" font-size="13px" font-style="normal" font-weight="normal" text-decoration="none" x="493.036865234375" y="284.5">«controller»</text></g></g><g transform="translate(-262,-133) scale(1,1)"><g><path fill="none" stroke="none"/><text fill="#000000" stroke="none" font-family="Arial" font-size="13px" font-style="normal" font-weight="bold" text-decoration="none" x="485.0927734375" y="299.5">ChatController</text></g></g><g transform="translate(-262,-133) scale(1,1)"><path fill="none" stroke="#000000" d="M 335 266 L 335 201" stroke-miterlimit="10"/></g><g transform="translate(-262,-133) scale(1,1)"><path fill="none" stroke="#000000" d="M 858 266 L 858 201" stroke-miterlimit="10"/></g><g transform="translate(-262,-133) scale(1,1)"><path fill="none" stroke="#000000" d="M 526 267 L 526 200" stroke-miterlimit="10"/></g><g transform="translate(-262,-133) scale(1,1)"><rect fill="#C0C0C0" stroke="none" x="647" y="375" width="54.53173828125" height="57" opacity="0.2"/></g><g transform="translate(-262,-133) scale(1,1)"><rect fill="#ffffff" stroke="none" x="640" y="368" width="54.53173828125" height="57"/></g><g transform="translate(-262,-133) scale(1,1)"><path fill="none" stroke="#000000" d="M 640 368 L 694.53173828125 368 L 694.53173828125 425 L 640 425 L 640 368 Z Z" stroke-miterlimit="10"/></g><g transform="translate(-262,-133) scale(1,1)"><path fill="none" stroke="#000000" d="M 640 406 L 694.53173828125 406" stroke-miterlimit="10"/></g><g transform="translate(-262,-133) scale(1,1)"><path fill="none" stroke="#000000" d="M 640 416 L 694.53173828125 416" stroke-miterlimit="10"/></g><g transform="translate(-262,-133) scale(1,1)"><g><path fill="none" stroke="none"/><text fill="#000000" stroke="none" font-family="Arial" font-size="13px" font-style="normal" font-weight="normal" text-decoration="none" x="644.5" y="385.5">«entity»</text></g></g><g transform="translate(-262,-133) scale(1,1)"><g><path fill="none" stroke="none"/><text fill="#000000" stroke="none" font-family="Arial" font-size="13px" font-style="normal" font-weight="bold" text-decoration="none" x="653.542236328125" y="400.5">User</text></g></g><g transform="translate(-262,-133) scale(1,1)"><rect fill="#C0C0C0" stroke="none" x="887" y="471" width="54.53173828125" height="57" opacity="0.2"/></g><g transform="translate(-262,-133) scale(1,1)"><rect fill="#ffffff" stroke="none" x="880" y="464" width="54.53173828125" height="57"/></g><g transform="translate(-262,-133) scale(1,1)"><path fill="none" stroke="#000000" d="M 880 464 L 934.53173828125 464 L 934.53173828125 521 L 880 521 L 880 464 Z Z" stroke-miterlimit="10"/></g><g transform="translate(-262,-133) scale(1,1)"><path fill="none" stroke="#000000" d="M 880 502 L 934.53173828125 502" stroke-miterlimit="10"/></g><g transform="translate(-262,-133) scale(1,1)"><path fill="none" stroke="#000000" d="M 880 512 L 934.53173828125 512" stroke-miterlimit="10"/></g><g transform="translate(-262,-133) scale(1,1)"><g><path fill="none" stroke="none"/><text fill="#000000" stroke="none" font-family="Arial" font-size="13px" font-style="normal" font-weight="normal" text-decoration="none" x="884.5" y="481.5">«entity»</text></g></g><g transform="translate(-262,-133) scale(1,1)"><g><path fill="none" stroke="none"/><text fill="#000000" stroke="none" font-family="Arial" font-size="13px" font-style="normal" font-weight="bold" text-decoration="none" x="889.92724609375" y="496.5">Room</text></g></g><g transform="translate(-262,-133) scale(1,1)"><rect fill="#C0C0C0" stroke="none" x="671" y="274" width="56.68994140625" height="57" opacity="0.2"/></g><g transform="translate(-262,-133) scale(1,1)"><rect fill="#ffffff" stroke="none" x="664" y="267" width="56.68994140625" height="57"/></g><g transform="translate(-262,-133) scale(1,1)"><path fill="none" stroke="#000000" d="M 664 267 L 720.68994140625 267 L 720.68994140625 324 L 664 324 L 664 267 Z Z" stroke-miterlimit="10"/></g><g transform="translate(-262,-133) scale(1,1)"><path fill="none" stroke="#000000" d="M 664 305 L 720.68994140625 305" stroke-miterlimit="10"/></g><g transform="translate(-262,-133) scale(1,1)"><path fill="none" stroke="#000000" d="M 664 315 L 720.68994140625 315" stroke-miterlimit="10"/></g><g transform="translate(-262,-133) scale(1,1)"><g><path fill="none" stroke="none"/><text fill="#000000" stroke="none" font-family="Arial" font-size="13px" font-style="normal" font-weight="normal" text-decoration="none" x="669.5791015625" y="284.5">«entity»</text></g></g><g transform="translate(-262,-133) scale(1,1)"><g><path fill="none" stroke="none"/><text fill="#000000" stroke="none" font-family="Arial" font-size="13px" font-style="normal" font-weight="bold" text-decoration="none" x="669.58544921875" y="299.5">Mssage</text></g></g><g transform="translate(-262,-133) scale(1,1)"><rect fill="#C0C0C0" stroke="none" x="487" y="463" width="100.7236328125" height="57" opacity="0.2"/></g><g transform="translate(-262,-133) scale(1,1)"><rect fill="#ffffff" stroke="none" x="480" y="456" width="100.7236328125" height="57"/></g><g transform="translate(-262,-133) scale(1,1)"><path fill="none" stroke="#000000" d="M 480 456 L 580.7236328125 456 L 580.7236328125 513 L 480 513 L 480 456 Z Z" stroke-miterlimit="10"/></g><g transform="translate(-262,-133) scale(1,1)"><path fill="none" stroke="#000000" d="M 480 494 L 580.7236328125 494" stroke-miterlimit="10"/></g><g transform="translate(-262,-133) scale(1,1)"><path fill="none" stroke="#000000" d="M 480 504 L 580.7236328125 504" stroke-miterlimit="10"/></g><g transform="translate(-262,-133) scale(1,1)"><g><path fill="none" stroke="none"/><text fill="#000000" stroke="none" font-family="Arial" font-size="13px" font-style="normal" font-weight="normal" text-decoration="none" x="496.398681640625" y="473.5">«controller»</text></g></g><g transform="translate(-262,-133) scale(1,1)"><g><path fill="none" stroke="none"/><text fill="#000000" stroke="none" font-family="Arial" font-size="13px" font-style="normal" font-weight="bold" text-decoration="none" x="488.095947265625" y="488.5">MainController</text></g></g><g transform="translate(-262,-133) scale(1,1)"><path fill="none" stroke="#000000" d="M 335 324 L 335 360 M 335 360 A 8 8 0 0 0 343 368 L 488 368 M 488 368 A 8 8 0 0 1 496 376 L 496 456" stroke-miterlimit="10"/></g><g transform="translate(-262,-133) scale(1,1)"><path fill="none" stroke="#000000" d="M 858 324 L 858 470 M 858 470 A 8 8 0 0 1 850 478 L 581 478" stroke-miterlimit="10"/></g><g transform="translate(-262,-133) scale(1,1)"><rect fill="#C0C0C0" stroke="none" x="1143" y="271" width="77.6689453125" height="57" opacity="0.2"/></g><g transform="translate(-262,-133) scale(1,1)"><rect fill="#ffffff" stroke="none" x="1136" y="264" width="77.6689453125" height="57"/></g><g transform="translate(-262,-133) scale(1,1)"><path fill="none" stroke="#000000" d="M 1136 264 L 1213.6689453125 264 L 1213.6689453125 321 L 1136 321 L 1136 264 Z Z" stroke-miterlimit="10"/></g><g transform="translate(-262,-133) scale(1,1)"><path fill="none" stroke="#000000" d="M 1136 302 L 1213.6689453125 302" stroke-miterlimit="10"/></g><g transform="translate(-262,-133) scale(1,1)"><path fill="none" stroke="#000000" d="M 1136 312 L 1213.6689453125 312" stroke-miterlimit="10"/></g><g transform="translate(-262,-133) scale(1,1)"><g><path fill="none" stroke="none"/><text fill="#000000" stroke="none" font-family="Arial" font-size="13px" font-style="normal" font-weight="normal" text-decoration="none" x="1140.5" y="281.5">«boundary»</text></g></g><g transform="translate(-262,-133) scale(1,1)"><g><path fill="none" stroke="none"/><text fill="#000000" stroke="none" font-family="Arial" font-size="13px" font-style="normal" font-weight="bold" text-decoration="none" x="1160.745849609375" y="296.5">Card</text></g></g><g transform="translate(-262,-133) scale(1,1)"><path fill="none" stroke="#000000" d="M 1036 408 L 1036 384 M 1036 384 A 8 8 0 0 1 1044 376 L 1145 376 M 1145 376 A 8 8 0 0 0 1153 368 L 1153 321" stroke-miterlimit="10"/></g><g transform="translate(-262,-133) scale(1,1)"><path fill="#FFFFFF" stroke="none" d="M 1161.419035512032 341.3253497152483 L 1153 321 L 1144.580964487968 341.3253497152483"/></g><g transform="translate(-262,-133) scale(1,1)"><path fill="none" stroke="#000000" d="M 1161.419035512032 341.3253497152483 L 1153 321 L 1144.580964487968 341.3253497152483 L 1161.419035512032 341.3253497152483" stroke-miterlimit="10"/></g><g transform="translate(-262,-133) scale(1,1)"><path fill="none" stroke="#000000" d="M 1175 408 L 1175 321" stroke-miterlimit="10"/></g><g transform="translate(-262,-133) scale(1,1)"><path fill="#FFFFFF" stroke="none" d="M 1183.419035512032 341.3253497152483 L 1175 321 L 1166.580964487968 341.3253497152483"/></g><g transform="translate(-262,-133) scale(1,1)"><path fill="none" stroke="#000000" d="M 1183.419035512032 341.3253497152483 L 1175 321 L 1166.580964487968 341.3253497152483 L 1183.419035512032 341.3253497152483" stroke-miterlimit="10"/></g><g transform="translate(-262,-133) scale(1,1)"><path fill="none" stroke="#000000" d="M 1312 408 L 1312 384 M 1312 384 A 8 8 0 0 0 1304 376 L 1204 376 M 1204 376 A 8 8 0 0 1 1196 368 L 1196 321" stroke-miterlimit="10"/></g><g transform="translate(-262,-133) scale(1,1)"><path fill="#FFFFFF" stroke="none" d="M 1204.419035512032 341.3253497152483 L 1196 321 L 1187.580964487968 341.3253497152483"/></g><g transform="translate(-262,-133) scale(1,1)"><path fill="none" stroke="#000000" d="M 1204.419035512032 341.3253497152483 L 1196 321 L 1187.580964487968 341.3253497152483 L 1204.419035512032 341.3253497152483" stroke-miterlimit="10"/></g><g transform="translate(-262,-133) scale(1,1)"><path fill="none" stroke="#000000" d="M 916 296 L 1136 296" stroke-miterlimit="10"/></g><g transform="translate(-262,-133) scale(1,1)"><path fill="none" stroke="#000000" d="M 896 267 L 896 224 M 896 224 A 8 8 0 0 1 904 216 L 944 216" stroke-miterlimit="10"/></g><g transform="translate(-262,-133) scale(1,1)"><path fill="none" stroke="#000000" d="M 525 324 L 525 456" stroke-miterlimit="10"/></g><g transform="translate(-262,-133) scale(1,1)"><path fill="none" stroke="#000000" d="M 896 324 L 896 464" stroke-miterlimit="10"/></g><g transform="translate(-262,-133) scale(1,1)"><g><path fill="none" stroke="none"/><text fill="#000000" stroke="none" font-family="Arial" font-size="13px" font-style="normal" font-weight="normal" text-decoration="none" x="879.5" y="351.5">1</text></g></g><g transform="translate(-262,-133) scale(1,1)"><g><path fill="none" stroke="none"/><text fill="#000000" stroke="none" font-family="Arial" font-size="13px" font-style="normal" font-weight="normal" text-decoration="none" x="873.5" y="448.5">0..*</text></g></g><g transform="translate(-262,-133) scale(1,1)"><path fill="none" stroke="#000000" d="M 695 392 L 696 392 M 696 392 A 8 8 0 0 0 704 384 L 704 324" stroke-miterlimit="10"/></g><g transform="translate(-262,-133) scale(1,1)"><g><path fill="none" stroke="none"/><text fill="#000000" stroke="none" font-family="Arial" font-size="13px" font-style="normal" font-weight="normal" text-decoration="none" x="712.5" y="396.5">2</text></g></g><g transform="translate(-262,-133) scale(1,1)"><g><path fill="none" stroke="none"/><text fill="#000000" stroke="none" font-family="Arial" font-size="13px" font-style="normal" font-weight="normal" text-decoration="none" x="706.58544921875" y="351.5">0..*</text></g></g><g transform="translate(-262,-133) scale(1,1)"><path fill="none" stroke="#000000" d="M 563 324 L 563 384 M 563 384 A 8 8 0 0 0 571 392 L 640 392" stroke-miterlimit="10"/></g><g transform="translate(-262,-133) scale(1,1)"><g><path fill="none" stroke="none"/><text fill="#000000" stroke="none" font-family="Arial" font-size="13px" font-style="normal" font-weight="normal" text-decoration="none" x="546.5" y="351.5">1</text></g></g><g transform="translate(-262,-133) scale(1,1)"><g><path fill="none" stroke="none"/><text fill="#000000" stroke="none" font-family="Arial" font-size="13px" font-style="normal" font-weight="normal" text-decoration="none" x="614.5" y="410.5">2</text></g></g><g transform="translate(-262,-133) scale(1,1)"><path fill="none" stroke="#000000" d="M 577 302 L 664 302" stroke-miterlimit="10"/></g><g transform="translate(-262,-133) scale(1,1)"><g><path fill="none" stroke="none"/><text fill="#000000" stroke="none" font-family="Arial" font-size="13px" font-style="normal" font-weight="normal" text-decoration="none" x="594.5" y="320.5">1</text></g></g><g transform="translate(-262,-133) scale(1,1)"><g><path fill="none" stroke="none"/><text fill="#000000" stroke="none" font-family="Arial" font-size="13px" font-style="normal" font-weight="normal" text-decoration="none" x="632.5" y="320.5">0..*</text></g></g><g transform="translate(-262,-133) scale(1,1)"><path fill="none" stroke="#000000" d="M 581 464 L 657 464 M 657 464 A 8 8 0 0 0 665 456 L 665 425" stroke-miterlimit="10"/></g><g transform="translate(-262,-133) scale(1,1)"><path fill="none" stroke="#000000" d="M 819 324 L 819 400 M 819 400 A 8 8 0 0 1 811 408 L 695 408" stroke-miterlimit="10"/></g></g></svg>