<svg version="1.1" xmlns="http://www.w3.org/2000/svg" xmlns:xlink="http://www.w3.org/1999/xlink" width="390.44091796875" height="311"><defs/><g><text fill="#eeeeee" stroke="none" font-family="Arial" font-size="24px" font-style="normal" font-weight="normal" text-decoration="none" x="0" y="0"></text><text fill="#eeeeee" stroke="none" font-family="Arial" font-size="24px" font-style="normal" font-weight="normal" text-decoration="none" x="0" y="30"></text><text fill="#eeeeee" stroke="none" font-family="Arial" font-size="24px" font-style="normal" font-weight="normal" text-decoration="none" x="0" y="60"></text><text fill="#eeeeee" stroke="none" font-family="Arial" font-size="24px" font-style="normal" font-weight="normal" text-decoration="none" x="0" y="90"></text><text fill="#eeeeee" stroke="none" font-family="Arial" font-size="24px" font-style="normal" font-weight="normal" text-decoration="none" x="0" y="120"></text><text fill="#eeeeee" stroke="none" font-family="Arial" font-size="24px" font-style="normal" font-weight="normal" text-decoration="none" x="0" y="150"></text><text fill="#eeeeee" stroke="none" font-family="Arial" font-size="24px" font-style="normal" font-weight="normal" text-decoration="none" x="0" y="180"></text><text fill="#eeeeee" stroke="none" font-family="Arial" font-size="24px" font-style="normal" font-weight="normal" text-decoration="none" x="0" y="210"></text><text fill="#eeeeee" stroke="none" font-family="Arial" font-size="24px" font-style="normal" font-weight="normal" text-decoration="none" x="0" y="240"></text><text fill="#eeeeee" stroke="none" font-family="Arial" font-size="24px" font-style="normal" font-weight="normal" text-decoration="none" x="0" y="270"></text><text fill="#eeeeee" stroke="none" font-family="Arial" font-size="24px" font-style="normal" font-weight="normal" text-decoration="none" x="0" y="300"></text><text fill="#eeeeee" stroke="none" font-family="Arial" font-size="24px" font-style="normal" font-weight="normal" text-decoration="none" x="200" y="0"></text><text fill="#eeeeee" stroke="none" font-family="Arial" font-size="24px" font-style="normal" font-weight="normal" text-decoration="none" x="200" y="30"></text><text fill="#eeeeee" stroke="none" font-family="Arial" font-size="24px" font-style="normal" font-weight="normal" text-decoration="none" x="200" y="60"></text><text fill="#eeeeee" stroke="none" font-family="Arial" font-size="24px" font-style="normal" font-weight="normal" text-decoration="none" x="200" y="90"></text><text fill="#eeeeee" stroke="none" font-family="Arial" font-size="24px" font-style="normal" font-weight="normal" text-decoration="none" x="200" y="120"></text><text fill="#eeeeee" stroke="none" font-family="Arial" font-size="24px" font-style="normal" font-weight="normal" text-decoration="none" x="200" y="150"></text><text fill="#eeeeee" stroke="none" font-family="Arial" font-size="24px" font-style="normal" font-weight="normal" text-decoration="none" x="200" y="180"></text><text fill="#eeeeee" stroke="none" font-family="Arial" font-size="24px" font-style="normal" font-weight="normal" text-decoration="none" x="200" y="210"></text><text fill="#eeeeee" stroke="none" font-family="Arial" font-size="24px" font-style="normal" font-weight="normal" text-decoration="none" x="200" y="240"></text><text fill="#eeeeee" stroke="none" font-family="Arial" font-size="24px" font-style="normal" font-weight="normal" text-decoration="none" x="200" y="270"></text><text fill="#eeeeee" stroke="none" font-family="Arial" font-size="24px" font-style="normal" font-weight="normal" text-decoration="none" x="200" y="300"></text><g transform="translate(-235,-150) scale(1,1)"><rect fill="#C0C0C0" stroke="none" x="262" y="289" width="118" height="48" opacity="0.2"/></g><g transform="translate(-235,-150) scale(1,1)"><rect fill="#ffffff" stroke="none" x="255" y="282" width="118" height="48"/></g><g transform="translate(-235,-150) scale(1,1)"><path fill="none" stroke="#000000" d="M 255 282 L 373 282 L 373 330 L 255 330 L 255 282 Z Z" stroke-miterlimit="10"/></g><g transform="translate(-235,-150) scale(1,1)"><rect fill="#ffffff" stroke="none" x="245" y="289" width="20" height="10"/></g><g transform="translate(-235,-150) scale(1,1)"><path fill="none" stroke="#000000" d="M 245 289 L 265 289 L 265 299 L 245 299 L 245 289 Z Z" stroke-miterlimit="10"/></g><g transform="translate(-235,-150) scale(1,1)"><rect fill="#ffffff" stroke="none" x="245" y="309" width="20" height="10"/></g><g transform="translate(-235,-150) scale(1,1)"><path fill="none" stroke="#000000" d="M 245 309 L 265 309 L 265 319 L 245 319 L 245 309 Z Z" stroke-miterlimit="10"/></g><g transform="translate(-235,-150) scale(1,1)"><g><path fill="none" stroke="none"/><text fill="#000000" stroke="none" font-family="Arial" font-size="13px" font-style="normal" font-weight="bold" text-decoration="none" x="299.85546875" y="301.5">Server</text></g></g><g transform="translate(-235,-150) scale(1,1)"><path fill="#C0C0C0" stroke="none" d="M 304.6708984375 242.5 C 304.6708984375 236.1487248 309.8196232375 231 316.1708984375 231 C 322.5221736375 231 327.6708984375 236.1487248 327.6708984375 242.5 C 327.6708984375 248.8512752 322.5221736375 254 316.1708984375 254 C 309.8196232375 254 304.6708984375 248.8512752 304.6708984375 242.5 Z" opacity="0.2"/></g><g transform="translate(-235,-150) scale(1,1)"><path fill="none" stroke="#000000" d="M 320.5 235 A 11.5 11.5 0 0 1 297.5 235" stroke-miterlimit="10"/></g><g transform="translate(-235,-150) scale(1,1)"><path fill="#ffffff" stroke="none" d="M 300.6708984375 235.5 C 300.6708984375 230.8055792 304.4764776375 227 309.1708984375 227 C 313.8653192375 227 317.6708984375 230.8055792 317.6708984375 235.5 C 317.6708984375 240.1944208 313.8653192375 244 309.1708984375 244 C 304.4764776375 244 300.6708984375 240.1944208 300.6708984375 235.5 Z"/></g><g transform="translate(-235,-150) scale(1,1)"><path fill="none" stroke="#000000" d="M 300.6708984375 235.5 C 300.6708984375 230.8055792 304.4764776375 227 309.1708984375 227 C 313.8653192375 227 317.6708984375 230.8055792 317.6708984375 235.5 C 317.6708984375 240.1944208 313.8653192375 244 309.1708984375 244 C 304.4764776375 244 300.6708984375 240.1944208 300.6708984375 235.5 Z" stroke-miterlimit="10"/></g><g transform="translate(-235,-150) scale(1,1)"><g><path fill="none" stroke="none"/><text fill="#000000" stroke="none" font-family="Arial" font-size="13px" font-style="normal" font-weight="bold" text-decoration="none" x="265.4609375" y="266.5">Files Functions</text></g></g><g transform="translate(-235,-150) scale(1,1)"><rect fill="#C0C0C0" stroke="none" x="272" y="167" width="99.1962890625" height="44" opacity="0.2"/></g><g transform="translate(-235,-150) scale(1,1)"><rect fill="#ffffff" stroke="none" x="265" y="160" width="99.1962890625" height="44"/></g><g transform="translate(-235,-150) scale(1,1)"><path fill="none" stroke="#000000" d="M 265 160 L 364.1962890625 160 L 364.1962890625 204 L 265 204 L 265 160 Z Z" stroke-miterlimit="10"/></g><g transform="translate(-235,-150) scale(1,1)"><rect fill="#ffffff" stroke="none" x="255" y="167" width="20" height="10"/></g><g transform="translate(-235,-150) scale(1,1)"><path fill="none" stroke="#000000" d="M 255 167 L 275 167 L 275 177 L 255 177 L 255 167 Z Z" stroke-miterlimit="10"/></g><g transform="translate(-235,-150) scale(1,1)"><rect fill="#ffffff" stroke="none" x="255" y="187" width="20" height="10"/></g><g transform="translate(-235,-150) scale(1,1)"><path fill="none" stroke="#000000" d="M 255 187 L 275 187 L 275 197 L 255 197 L 255 187 Z Z" stroke-miterlimit="10"/></g><g transform="translate(-235,-150) scale(1,1)"><g><path fill="none" stroke="none"/><text fill="#000000" stroke="none" font-family="Arial" font-size="13px" font-style="normal" font-weight="bold" text-decoration="none" x="281.66455078125" y="179.5">File manager</text></g></g><g transform="translate(-235,-150) scale(1,1)"><rect fill="#C0C0C0" stroke="none" x="524" y="293" width="98.44091796875" height="44" opacity="0.2"/></g><g transform="translate(-235,-150) scale(1,1)"><rect fill="#ffffff" stroke="none" x="517" y="286" width="98.44091796875" height="44"/></g><g transform="translate(-235,-150) scale(1,1)"><path fill="none" stroke="#000000" d="M 517 286 L 615.44091796875 286 L 615.44091796875 330 L 517 330 L 517 286 Z Z" stroke-miterlimit="10"/></g><g transform="translate(-235,-150) scale(1,1)"><rect fill="#ffffff" stroke="none" x="507" y="293" width="20" height="10"/></g><g transform="translate(-235,-150) scale(1,1)"><path fill="none" stroke="#000000" d="M 507 293 L 527 293 L 527 303 L 507 303 L 507 293 Z Z" stroke-miterlimit="10"/></g><g transform="translate(-235,-150) scale(1,1)"><rect fill="#ffffff" stroke="none" x="507" y="313" width="20" height="10"/></g><g transform="translate(-235,-150) scale(1,1)"><path fill="none" stroke="#000000" d="M 507 313 L 527 313 L 527 323 L 507 323 L 507 313 Z Z" stroke-miterlimit="10"/></g><g transform="translate(-235,-150) scale(1,1)"><g><path fill="none" stroke="none"/><text fill="#000000" stroke="none" font-family="Arial" font-size="13px" font-style="normal" font-weight="bold" text-decoration="none" x="552.79638671875" y="305.5">Finder</text></g></g><g transform="translate(-235,-150) scale(1,1)"><rect fill="#C0C0C0" stroke="none" x="416" y="414" width="98.44091796875" height="44" opacity="0.2"/></g><g transform="translate(-235,-150) scale(1,1)"><rect fill="#ffffff" stroke="none" x="409" y="407" width="98.44091796875" height="44"/></g><g transform="translate(-235,-150) scale(1,1)"><path fill="none" stroke="#000000" d="M 409 407 L 507.44091796875 407 L 507.44091796875 451 L 409 451 L 409 407 Z Z" stroke-miterlimit="10"/></g><g transform="translate(-235,-150) scale(1,1)"><rect fill="#ffffff" stroke="none" x="399" y="414" width="20" height="10"/></g><g transform="translate(-235,-150) scale(1,1)"><path fill="none" stroke="#000000" d="M 399 414 L 419 414 L 419 424 L 399 424 L 399 414 Z Z" stroke-miterlimit="10"/></g><g transform="translate(-235,-150) scale(1,1)"><rect fill="#ffffff" stroke="none" x="399" y="434" width="20" height="10"/></g><g transform="translate(-235,-150) scale(1,1)"><path fill="none" stroke="#000000" d="M 399 434 L 419 434 L 419 444 L 399 444 L 399 434 Z Z" stroke-miterlimit="10"/></g><g transform="translate(-235,-150) scale(1,1)"><g><path fill="none" stroke="none"/><text fill="#000000" stroke="none" font-family="Arial" font-size="13px" font-style="normal" font-weight="bold" text-decoration="none" x="431.06640625" y="426.5">Messenger</text></g></g><g transform="translate(-235,-150) scale(1,1)"><path fill="#C0C0C0" stroke="none" d="M 448.746826171875 314.5 C 448.746826171875 308.1487248 453.895550971875 303 460.246826171875 303 C 466.598101371875 303 471.746826171875 308.1487248 471.746826171875 314.5 C 471.746826171875 320.8512752 466.598101371875 326 460.246826171875 326 C 453.895550971875 326 448.746826171875 320.8512752 448.746826171875 314.5 Z" opacity="0.2"/></g><g transform="translate(-235,-150) scale(1,1)"><path fill="none" stroke="#000000" d="M 453 318.5 A 11.5 11.5 0 0 1 453 295.5" stroke-miterlimit="10"/></g><g transform="translate(-235,-150) scale(1,1)"><path fill="none" stroke="#000000" d="M 464.5 307 A 11.5 11.5 0 0 1 441.5 307" stroke-miterlimit="10"/></g><g transform="translate(-235,-150) scale(1,1)"><path fill="#ffffff" stroke="none" d="M 444.746826171875 307.5 C 444.746826171875 302.8055792 448.552405371875 299 453.246826171875 299 C 457.941246971875 299 461.746826171875 302.8055792 461.746826171875 307.5 C 461.746826171875 312.1944208 457.941246971875 316 453.246826171875 316 C 448.552405371875 316 444.746826171875 312.1944208 444.746826171875 307.5 Z"/></g><g transform="translate(-235,-150) scale(1,1)"><path fill="none" stroke="#000000" d="M 444.746826171875 307.5 C 444.746826171875 302.8055792 448.552405371875 299 453.246826171875 299 C 457.941246971875 299 461.746826171875 302.8055792 461.746826171875 307.5 C 461.746826171875 312.1944208 457.941246971875 316 453.246826171875 316 C 448.552405371875 316 444.746826171875 312.1944208 444.746826171875 307.5 Z" stroke-miterlimit="10"/></g><g transform="translate(-235,-150) scale(1,1)"><g><path fill="none" stroke="none"/><text fill="#000000" stroke="none" font-family="Arial" font-size="13px" font-style="normal" font-weight="bold" text-decoration="none" x="420.36279296875" y="338.5">Connection</text></g></g><g transform="translate(-235,-150) scale(1,1)"><path fill="none" stroke="#000000" d="M 309 205 L 309 224" stroke-miterlimit="10"/></g><g transform="translate(-235,-150) scale(1,1)"><path fill="none" stroke="#000000" d="M 507 307 L 464.746826171875 307" stroke-miterlimit="10"/></g><g transform="translate(-235,-150) scale(1,1)"><path fill="none" stroke="#000000" d="M 309 281 L 309 247" stroke-miterlimit="10"/></g><g transform="translate(-235,-150) scale(1,1)"><path fill="none" stroke="#000000" d="M 373 307 L 441.746826171875 307" stroke-miterlimit="10"/></g><g transform="translate(-235,-150) scale(1,1)"><rect fill="#C0C0C0" stroke="none" x="272" y="414" width="98.44091796875" height="44" opacity="0.2"/></g><g transform="translate(-235,-150) scale(1,1)"><rect fill="#ffffff" stroke="none" x="265" y="407" width="98.44091796875" height="44"/></g><g transform="translate(-235,-150) scale(1,1)"><path fill="none" stroke="#000000" d="M 265 407 L 363.44091796875 407 L 363.44091796875 451 L 265 451 L 265 407 Z Z" stroke-miterlimit="10"/></g><g transform="translate(-235,-150) scale(1,1)"><rect fill="#ffffff" stroke="none" x="255" y="414" width="20" height="10"/></g><g transform="translate(-235,-150) scale(1,1)"><path fill="none" stroke="#000000" d="M 255 414 L 275 414 L 275 424 L 255 424 L 255 414 Z Z" stroke-miterlimit="10"/></g><g transform="translate(-235,-150) scale(1,1)"><rect fill="#ffffff" stroke="none" x="255" y="434" width="20" height="10"/></g><g transform="translate(-235,-150) scale(1,1)"><path fill="none" stroke="#000000" d="M 255 434 L 275 434 L 275 444 L 255 444 L 255 434 Z Z" stroke-miterlimit="10"/></g><g transform="translate(-235,-150) scale(1,1)"><g><path fill="none" stroke="none"/><text fill="#000000" stroke="none" font-family="Arial" font-size="13px" font-style="normal" font-weight="bold" text-decoration="none" x="302.602294921875" y="426.5">Client</text></g></g><g transform="translate(-235,-150) scale(1,1)"><path fill="#C0C0C0" stroke="none" d="M 305.09814453125 370.5 C 305.09814453125 364.1487248 310.24686933125 359 316.59814453125 359 C 322.94941973125 359 328.09814453125 364.1487248 328.09814453125 370.5 C 328.09814453125 376.8512752 322.94941973125 382 316.59814453125 382 C 310.24686933125 382 305.09814453125 376.8512752 305.09814453125 370.5 Z" opacity="0.2"/></g><g transform="translate(-235,-150) scale(1,1)"><path fill="none" stroke="#000000" d="M 320.5 363 A 11.5 11.5 0 0 1 297.5 363" stroke-miterlimit="10"/></g><g transform="translate(-235,-150) scale(1,1)"><path fill="#ffffff" stroke="none" d="M 301.09814453125 363.5 C 301.09814453125 358.8055792 304.90372373125 355 309.59814453125 355 C 314.29256533125 355 318.09814453125 358.8055792 318.09814453125 363.5 C 318.09814453125 368.1944208 314.29256533125 372 309.59814453125 372 C 304.90372373125 372 301.09814453125 368.1944208 301.09814453125 363.5 Z"/></g><g transform="translate(-235,-150) scale(1,1)"><path fill="none" stroke="#000000" d="M 301.09814453125 363.5 C 301.09814453125 358.8055792 304.90372373125 355 309.59814453125 355 C 314.29256533125 355 318.09814453125 358.8055792 318.09814453125 363.5 C 318.09814453125 368.1944208 314.29256533125 372 309.59814453125 372 C 304.90372373125 372 301.09814453125 368.1944208 301.09814453125 363.5 Z" stroke-miterlimit="10"/></g><g transform="translate(-235,-150) scale(1,1)"><g><path fill="none" stroke="none"/><text fill="#000000" stroke="none" font-family="Arial" font-size="13px" font-style="normal" font-weight="bold" text-decoration="none" x="260.46728515625" y="394.5">Server Functions</text></g></g><g transform="translate(-235,-150) scale(1,1)"><path fill="none" stroke="#000000" d="M 309 331 L 309 352" stroke-miterlimit="10"/></g><g transform="translate(-235,-150) scale(1,1)"><path fill="none" stroke="#000000" d="M 309 406 L 309 375" stroke-miterlimit="10"/></g><g transform="translate(-235,-150) scale(1,1)"><path fill="none" stroke="#000000" d="M 453 406 L 453 319" stroke-miterlimit="10"/></g></g></svg>