<svg version="1.1" xmlns="http://www.w3.org/2000/svg" xmlns:xlink="http://www.w3.org/1999/xlink" width="403.44091796875" height="384"><defs/><g><text fill="#eeeeee" stroke="none" font-family="Arial" font-size="24px" font-style="normal" font-weight="normal" text-decoration="none" x="0" y="0"> </text><text fill="#eeeeee" stroke="none" font-family="Arial" font-size="24px" font-style="normal" font-weight="normal" text-decoration="none" x="0" y="30"> </text><text fill="#eeeeee" stroke="none" font-family="Arial" font-size="24px" font-style="normal" font-weight="normal" text-decoration="none" x="0" y="60"> </text><text fill="#eeeeee" stroke="none" font-family="Arial" font-size="24px" font-style="normal" font-weight="normal" text-decoration="none" x="0" y="90"> </text><text fill="#eeeeee" stroke="none" font-family="Arial" font-size="24px" font-style="normal" font-weight="normal" text-decoration="none" x="0" y="120"> </text><text fill="#eeeeee" stroke="none" font-family="Arial" font-size="24px" font-style="normal" font-weight="normal" text-decoration="none" x="0" y="150"> </text><text fill="#eeeeee" stroke="none" font-family="Arial" font-size="24px" font-style="normal" font-weight="normal" text-decoration="none" x="0" y="180"> </text><text fill="#eeeeee" stroke="none" font-family="Arial" font-size="24px" font-style="normal" font-weight="normal" text-decoration="none" x="0" y="210"> </text><text fill="#eeeeee" stroke="none" font-family="Arial" font-size="24px" font-style="normal" font-weight="normal" text-decoration="none" x="0" y="240"> </text><text fill="#eeeeee" stroke="none" font-family="Arial" font-size="24px" font-style="normal" font-weight="normal" text-decoration="none" x="0" y="270"> </text><text fill="#eeeeee" stroke="none" font-family="Arial" font-size="24px" font-style="normal" font-weight="normal" text-decoration="none" x="0" y="300"> </text><text fill="#eeeeee" stroke="none" font-family="Arial" font-size="24px" font-style="normal" font-weight="normal" text-decoration="none" x="0" y="330"> </text><text fill="#eeeeee" stroke="none" font-family="Arial" font-size="24px" font-style="normal" font-weight="normal" text-decoration="none" x="0" y="360"> </text><text fill="#eeeeee" stroke="none" font-family="Arial" font-size="24px" font-style="normal" font-weight="normal" text-decoration="none" x="200" y="0"> </text><text fill="#eeeeee" stroke="none" font-family="Arial" font-size="24px" font-style="normal" font-weight="normal" text-decoration="none" x="200" y="30"> </text><text fill="#eeeeee" stroke="none" font-family="Arial" font-size="24px" font-style="normal" font-weight="normal" text-decoration="none" x="200" y="60"> </text><text fill="#eeeeee" stroke="none" font-family="Arial" font-size="24px" font-style="normal" font-weight="normal" text-decoration="none" x="200" y="90"> </text><text fill="#eeeeee" stroke="none" font-family="Arial" font-size="24px" font-style="normal" font-weight="normal" text-decoration="none" x="200" y="120"> </text><text fill="#eeeeee" stroke="none" font-family="Arial" font-size="24px" font-style="normal" font-weight="normal" text-decoration="none" x="200" y="150"> </text><text fill="#eeeeee" stroke="none" font-family="Arial" font-size="24px" font-style="normal" font-weight="normal" text-decoration="none" x="200" y="180"> </text><text fill="#eeeeee" stroke="none" font-family="Arial" font-size="24px" font-style="normal" font-weight="normal" text-decoration="none" x="200" y="210"> </text><text fill="#eeeeee" stroke="none" font-family="Arial" font-size="24px" font-style="normal" font-weight="normal" text-decoration="none" x="200" y="240"> </text><text fill="#eeeeee" stroke="none" font-family="Arial" font-size="24px" font-style="normal" font-weight="normal" text-decoration="none" x="200" y="270"> </text><text fill="#eeeeee" stroke="none" font-family="Arial" font-size="24px" font-style="normal" font-weight="normal" text-decoration="none" x="200" y="300"> </text><text fill="#eeeeee" stroke="none" font-family="Arial" font-size="24px" font-style="normal" font-weight="normal" text-decoration="none" x="200" y="330"> </text><text fill="#eeeeee" stroke="none" font-family="Arial" font-size="24px" font-style="normal" font-weight="normal" text-decoration="none" x="200" y="360"> </text><text fill="#eeeeee" stroke="none" font-family="Arial" font-size="24px" font-style="normal" font-weight="normal" text-decoration="none" x="400" y="0"> </text><text fill="#eeeeee" stroke="none" font-family="Arial" font-size="24px" font-style="normal" font-weight="normal" text-decoration="none" x="400" y="30"> </text><text fill="#eeeeee" stroke="none" font-family="Arial" font-size="24px" font-style="normal" font-weight="normal" text-decoration="none" x="400" y="60"> </text><text fill="#eeeeee" stroke="none" font-family="Arial" font-size="24px" font-style="normal" font-weight="normal" text-decoration="none" x="400" y="90"> </text><text fill="#eeeeee" stroke="none" font-family="Arial" font-size="24px" font-style="normal" font-weight="normal" text-decoration="none" x="400" y="120"> </text><text fill="#eeeeee" stroke="none" font-family="Arial" font-size="24px" font-style="normal" font-weight="normal" text-decoration="none" x="400" y="150"> </text><text fill="#eeeeee" stroke="none" font-family="Arial" font-size="24px" font-style="normal" font-weight="normal" text-decoration="none" x="400" y="180"> </text><text fill="#eeeeee" stroke="none" font-family="Arial" font-size="24px" font-style="normal" font-weight="normal" text-decoration="none" x="400" y="210"> </text><text fill="#eeeeee" stroke="none" font-family="Arial" font-size="24px" font-style="normal" font-weight="normal" text-decoration="none" x="400" y="240"> </text><text fill="#eeeeee" stroke="none" font-family="Arial" font-size="24px" font-style="normal" font-weight="normal" text-decoration="none" x="400" y="270"> </text><text fill="#eeeeee" stroke="none" font-family="Arial" font-size="24px" font-style="normal" font-weight="normal" text-decoration="none" x="400" y="300"> </text><text fill="#eeeeee" stroke="none" font-family="Arial" font-size="24px" font-style="normal" font-weight="normal" text-decoration="none" x="400" y="330"> </text><text fill="#eeeeee" stroke="none" font-family="Arial" font-size="24px" font-style="normal" font-weight="normal" text-decoration="none" x="400" y="360"> </text><g transform="translate(-238,-126) scale(1,1)"><rect fill="#C0C0C0" stroke="none" x="265" y="289" width="118" height="48" opacity="0.2"/></g><g transform="translate(-238,-126) scale(1,1)"><rect fill="#ffffff" stroke="none" x="258" y="282" width="118" height="48"/></g><g transform="translate(-238,-126) scale(1,1)"><path fill="none" stroke="#000000" d="M 258 282 L 376 282 L 376 330 L 258 330 L 258 282 Z Z" stroke-miterlimit="10"/></g><g transform="translate(-238,-126) scale(1,1)"><rect fill="#ffffff" stroke="none" x="248" y="289" width="20" height="10"/></g><g transform="translate(-238,-126) scale(1,1)"><path fill="none" stroke="#000000" d="M 248 289 L 268 289 L 268 299 L 248 299 L 248 289 Z Z" stroke-miterlimit="10"/></g><g transform="translate(-238,-126) scale(1,1)"><rect fill="#ffffff" stroke="none" x="248" y="309" width="20" height="10"/></g><g transform="translate(-238,-126) scale(1,1)"><path fill="none" stroke="#000000" d="M 248 309 L 268 309 L 268 319 L 248 319 L 248 309 Z Z" stroke-miterlimit="10"/></g><g transform="translate(-238,-126) scale(1,1)"><g><path fill="none" stroke="none"/><text fill="#000000" stroke="none" font-family="Arial" font-size="13px" font-style="normal" font-weight="bold" text-decoration="none" x="302.85546875" y="301.5">Server</text></g></g><g transform="translate(-238,-126) scale(1,1)"><path fill="#C0C0C0" stroke="none" d="M 308.05908203125 225.5 C 308.05908203125 219.1487248 313.20780683125 214 319.55908203125 214 C 325.91035723125 214 331.05908203125 219.1487248 331.05908203125 225.5 C 331.05908203125 231.8512752 325.91035723125 237 319.55908203125 237 C 313.20780683125 237 308.05908203125 231.8512752 308.05908203125 225.5 Z" opacity="0.2"/></g><g transform="translate(-238,-126) scale(1,1)"><path fill="none" stroke="#000000" d="M 323.5 218 A 11.5 11.5 0 0 1 300.5 218" stroke-miterlimit="10"/></g><g transform="translate(-238,-126) scale(1,1)"><path fill="#ffffff" stroke="none" d="M 304.05908203125 218.5 C 304.05908203125 213.8055792 307.86466123125 210 312.55908203125 210 C 317.25350283125 210 321.05908203125 213.8055792 321.05908203125 218.5 C 321.05908203125 223.1944208 317.25350283125 227 312.55908203125 227 C 307.86466123125 227 304.05908203125 223.1944208 304.05908203125 218.5 Z"/></g><g transform="translate(-238,-126) scale(1,1)"><path fill="none" stroke="#000000" d="M 304.05908203125 218.5 C 304.05908203125 213.8055792 307.86466123125 210 312.55908203125 210 C 317.25350283125 210 321.05908203125 213.8055792 321.05908203125 218.5 C 321.05908203125 223.1944208 317.25350283125 227 312.55908203125 227 C 307.86466123125 227 304.05908203125 223.1944208 304.05908203125 218.5 Z" stroke-miterlimit="10"/></g><g transform="translate(-238,-126) scale(1,1)"><g><path fill="none" stroke="none"/><text fill="#000000" stroke="none" font-family="Arial" font-size="13px" font-style="normal" font-weight="bold" text-decoration="none" x="291.970458984375" y="249.5">Rooms</text></g></g><g transform="translate(-238,-126) scale(1,1)"><rect fill="#C0C0C0" stroke="none" x="275" y="143" width="98.44091796875" height="44" opacity="0.2"/></g><g transform="translate(-238,-126) scale(1,1)"><rect fill="#ffffff" stroke="none" x="268" y="136" width="98.44091796875" height="44"/></g><g transform="translate(-238,-126) scale(1,1)"><path fill="none" stroke="#000000" d="M 268 136 L 366.44091796875 136 L 366.44091796875 180 L 268 180 L 268 136 Z Z" stroke-miterlimit="10"/></g><g transform="translate(-238,-126) scale(1,1)"><rect fill="#ffffff" stroke="none" x="258" y="143" width="20" height="10"/></g><g transform="translate(-238,-126) scale(1,1)"><path fill="none" stroke="#000000" d="M 258 143 L 278 143 L 278 153 L 258 153 L 258 143 Z Z" stroke-miterlimit="10"/></g><g transform="translate(-238,-126) scale(1,1)"><rect fill="#ffffff" stroke="none" x="258" y="163" width="20" height="10"/></g><g transform="translate(-238,-126) scale(1,1)"><path fill="none" stroke="#000000" d="M 258 163 L 278 163 L 278 173 L 258 173 L 258 163 Z Z" stroke-miterlimit="10"/></g><g transform="translate(-238,-126) scale(1,1)"><g><path fill="none" stroke="none"/><text fill="#000000" stroke="none" font-family="Arial" font-size="13px" font-style="normal" font-weight="bold" text-decoration="none" x="291.872314453125" y="155.5">File loader</text></g></g><g transform="translate(-238,-126) scale(1,1)"><rect fill="#C0C0C0" stroke="none" x="540" y="293" width="98.44091796875" height="44" opacity="0.2"/></g><g transform="translate(-238,-126) scale(1,1)"><rect fill="#ffffff" stroke="none" x="533" y="286" width="98.44091796875" height="44"/></g><g transform="translate(-238,-126) scale(1,1)"><path fill="none" stroke="#000000" d="M 533 286 L 631.44091796875 286 L 631.44091796875 330 L 533 330 L 533 286 Z Z" stroke-miterlimit="10"/></g><g transform="translate(-238,-126) scale(1,1)"><rect fill="#ffffff" stroke="none" x="523" y="293" width="20" height="10"/></g><g transform="translate(-238,-126) scale(1,1)"><path fill="none" stroke="#000000" d="M 523 293 L 543 293 L 543 303 L 523 303 L 523 293 Z Z" stroke-miterlimit="10"/></g><g transform="translate(-238,-126) scale(1,1)"><rect fill="#ffffff" stroke="none" x="523" y="313" width="20" height="10"/></g><g transform="translate(-238,-126) scale(1,1)"><path fill="none" stroke="#000000" d="M 523 313 L 543 313 L 543 323 L 523 323 L 523 313 Z Z" stroke-miterlimit="10"/></g><g transform="translate(-238,-126) scale(1,1)"><g><path fill="none" stroke="none"/><text fill="#000000" stroke="none" font-family="Arial" font-size="13px" font-style="normal" font-weight="bold" text-decoration="none" x="568.79638671875" y="305.5">Finder</text></g></g><g transform="translate(-238,-126) scale(1,1)"><rect fill="#C0C0C0" stroke="none" x="540" y="463" width="98.44091796875" height="44" opacity="0.2"/></g><g transform="translate(-238,-126) scale(1,1)"><rect fill="#ffffff" stroke="none" x="533" y="456" width="98.44091796875" height="44"/></g><g transform="translate(-238,-126) scale(1,1)"><path fill="none" stroke="#000000" d="M 533 456 L 631.44091796875 456 L 631.44091796875 500 L 533 500 L 533 456 Z Z" stroke-miterlimit="10"/></g><g transform="translate(-238,-126) scale(1,1)"><rect fill="#ffffff" stroke="none" x="523" y="463" width="20" height="10"/></g><g transform="translate(-238,-126) scale(1,1)"><path fill="none" stroke="#000000" d="M 523 463 L 543 463 L 543 473 L 523 473 L 523 463 Z Z" stroke-miterlimit="10"/></g><g transform="translate(-238,-126) scale(1,1)"><rect fill="#ffffff" stroke="none" x="523" y="483" width="20" height="10"/></g><g transform="translate(-238,-126) scale(1,1)"><path fill="none" stroke="#000000" d="M 523 483 L 543 483 L 543 493 L 523 493 L 523 483 Z Z" stroke-miterlimit="10"/></g><g transform="translate(-238,-126) scale(1,1)"><g><path fill="none" stroke="none"/><text fill="#000000" stroke="none" font-family="Arial" font-size="13px" font-style="normal" font-weight="bold" text-decoration="none" x="555.06640625" y="475.5">Messenger</text></g></g><g transform="translate(-238,-126) scale(1,1)"><path fill="#C0C0C0" stroke="none" d="M 454.7099609375 314.5 C 454.7099609375 308.1487248 459.8586857375 303 466.2099609375 303 C 472.5612361375 303 477.7099609375 308.1487248 477.7099609375 314.5 C 477.7099609375 320.8512752 472.5612361375 326 466.2099609375 326 C 459.8586857375 326 454.7099609375 320.8512752 454.7099609375 314.5 Z" opacity="0.2"/></g><g transform="translate(-238,-126) scale(1,1)"><path fill="none" stroke="#000000" d="M 459 318.5 A 11.5 11.5 0 0 1 459 295.5" stroke-miterlimit="10"/></g><g transform="translate(-238,-126) scale(1,1)"><path fill="#ffffff" stroke="none" d="M 450.7099609375 307.5 C 450.7099609375 302.8055792 454.5155401375 299 459.2099609375 299 C 463.9043817375 299 467.7099609375 302.8055792 467.7099609375 307.5 C 467.7099609375 312.1944208 463.9043817375 316 459.2099609375 316 C 454.5155401375 316 450.7099609375 312.1944208 450.7099609375 307.5 Z"/></g><g transform="translate(-238,-126) scale(1,1)"><path fill="none" stroke="#000000" d="M 450.7099609375 307.5 C 450.7099609375 302.8055792 454.5155401375 299 459.2099609375 299 C 463.9043817375 299 467.7099609375 302.8055792 467.7099609375 307.5 C 467.7099609375 312.1944208 463.9043817375 316 459.2099609375 316 C 454.5155401375 316 450.7099609375 312.1944208 450.7099609375 307.5 Z" stroke-miterlimit="10"/></g><g transform="translate(-238,-126) scale(1,1)"><g><path fill="none" stroke="none"/><text fill="#000000" stroke="none" font-family="Arial" font-size="13px" font-style="normal" font-weight="bold" text-decoration="none" x="432.841796875" y="338.5">FindUser</text></g></g><g transform="translate(-238,-126) scale(1,1)"><path fill="none" stroke="#000000" d="M 312 181 L 312 207" stroke-miterlimit="10"/></g><g transform="translate(-238,-126) scale(1,1)"><path fill="#C0C0C0" stroke="none" d="M 572.93994140625 386.5 C 572.93994140625 380.1487248 578.08866620625 375 584.43994140625 375 C 590.79121660625 375 595.93994140625 380.1487248 595.93994140625 386.5 C 595.93994140625 392.8512752 590.79121660625 398 584.43994140625 398 C 578.08866620625 398 572.93994140625 392.8512752 572.93994140625 386.5 Z" opacity="0.2"/></g><g transform="translate(-238,-126) scale(1,1)"><path fill="none" stroke="#000000" d="M 588.5 379 A 11.5 11.5 0 0 1 565.5 379" stroke-miterlimit="10"/></g><g transform="translate(-238,-126) scale(1,1)"><path fill="#ffffff" stroke="none" d="M 568.93994140625 379.5 C 568.93994140625 374.8055792 572.74552060625 371 577.43994140625 371 C 582.13436220625 371 585.93994140625 374.8055792 585.93994140625 379.5 C 585.93994140625 384.1944208 582.13436220625 388 577.43994140625 388 C 572.74552060625 388 568.93994140625 384.1944208 568.93994140625 379.5 Z"/></g><g transform="translate(-238,-126) scale(1,1)"><path fill="none" stroke="#000000" d="M 568.93994140625 379.5 C 568.93994140625 374.8055792 572.74552060625 371 577.43994140625 371 C 582.13436220625 371 585.93994140625 374.8055792 585.93994140625 379.5 C 585.93994140625 384.1944208 582.13436220625 388 577.43994140625 388 C 572.74552060625 388 568.93994140625 384.1944208 568.93994140625 379.5 Z" stroke-miterlimit="10"/></g><g transform="translate(-238,-126) scale(1,1)"><g><path fill="none" stroke="none"/><text fill="#000000" stroke="none" font-family="Arial" font-size="13px" font-style="normal" font-weight="bold" text-decoration="none" x="541.67724609375" y="410.5">PairedUsers</text></g></g><g transform="translate(-238,-126) scale(1,1)"><path fill="none" stroke="#000000" d="M 577 331 L 577 368" stroke-miterlimit="10"/></g><g transform="translate(-238,-126) scale(1,1)"><path fill="none" stroke="#000000" d="M 523 307 L 470.7099609375 307" stroke-miterlimit="10"/></g><g transform="translate(-238,-126) scale(1,1)"><path fill="none" stroke="#000000" d="M 312 281 L 312 230" stroke-miterlimit="10"/></g><g transform="translate(-238,-126) scale(1,1)"><path fill="none" stroke="#000000" d="M 376 307 L 447.7099609375 307" stroke-miterlimit="10"/></g><g transform="translate(-238,-126) scale(1,1)"><path fill="none" stroke="#000000" d="M 577 455 L 577 391" stroke-miterlimit="10"/></g><g transform="translate(-238,-126) scale(1,1)"><rect fill="#C0C0C0" stroke="none" x="275" y="439" width="98.44091796875" height="44" opacity="0.2"/></g><g transform="translate(-238,-126) scale(1,1)"><rect fill="#ffffff" stroke="none" x="268" y="432" width="98.44091796875" height="44"/></g><g transform="translate(-238,-126) scale(1,1)"><path fill="none" stroke="#000000" d="M 268 432 L 366.44091796875 432 L 366.44091796875 476 L 268 476 L 268 432 Z Z" stroke-miterlimit="10"/></g><g transform="translate(-238,-126) scale(1,1)"><rect fill="#ffffff" stroke="none" x="258" y="439" width="20" height="10"/></g><g transform="translate(-238,-126) scale(1,1)"><path fill="none" stroke="#000000" d="M 258 439 L 278 439 L 278 449 L 258 449 L 258 439 Z Z" stroke-miterlimit="10"/></g><g transform="translate(-238,-126) scale(1,1)"><rect fill="#ffffff" stroke="none" x="258" y="459" width="20" height="10"/></g><g transform="translate(-238,-126) scale(1,1)"><path fill="none" stroke="#000000" d="M 258 459 L 278 459 L 278 469 L 258 469 L 258 459 Z Z" stroke-miterlimit="10"/></g><g transform="translate(-238,-126) scale(1,1)"><g><path fill="none" stroke="none"/><text fill="#000000" stroke="none" font-family="Arial" font-size="13px" font-style="normal" font-weight="bold" text-decoration="none" x="305.602294921875" y="451.5">Client</text></g></g><g transform="translate(-238,-126) scale(1,1)"><path fill="#C0C0C0" stroke="none" d="M 307.7099609375 378.5 C 307.7099609375 372.1487248 312.8586857375 367 319.2099609375 367 C 325.5612361375 367 330.7099609375 372.1487248 330.7099609375 378.5 C 330.7099609375 384.8512752 325.5612361375 390 319.2099609375 390 C 312.8586857375 390 307.7099609375 384.8512752 307.7099609375 378.5 Z" opacity="0.2"/></g><g transform="translate(-238,-126) scale(1,1)"><path fill="none" stroke="#000000" d="M 300.5 371 A 11.5 11.5 0 0 1 323.5 371" stroke-miterlimit="10"/></g><g transform="translate(-238,-126) scale(1,1)"><path fill="#ffffff" stroke="none" d="M 303.7099609375 371.5 C 303.7099609375 366.8055792 307.5155401375 363 312.2099609375 363 C 316.9043817375 363 320.7099609375 366.8055792 320.7099609375 371.5 C 320.7099609375 376.1944208 316.9043817375 380 312.2099609375 380 C 307.5155401375 380 303.7099609375 376.1944208 303.7099609375 371.5 Z"/></g><g transform="translate(-238,-126) scale(1,1)"><path fill="none" stroke="#000000" d="M 303.7099609375 371.5 C 303.7099609375 366.8055792 307.5155401375 363 312.2099609375 363 C 316.9043817375 363 320.7099609375 366.8055792 320.7099609375 371.5 C 320.7099609375 376.1944208 316.9043817375 380 312.2099609375 380 C 307.5155401375 380 303.7099609375 376.1944208 303.7099609375 371.5 Z" stroke-miterlimit="10"/></g><g transform="translate(-238,-126) scale(1,1)"><g><path fill="none" stroke="none"/><text fill="#000000" stroke="none" font-family="Arial" font-size="13px" font-style="normal" font-weight="bold" text-decoration="none" x="284.75634765625" y="402.5">UserData</text></g></g><g transform="translate(-238,-126) scale(1,1)"><path fill="none" stroke="#000000" d="M 312 431 L 312 383" stroke-miterlimit="10"/></g><g transform="translate(-238,-126) scale(1,1)"><path fill="none" stroke="#000000" d="M 312 331 L 312 360" stroke-miterlimit="10"/></g></g></svg>