<svg version="1.1" xmlns="http://www.w3.org/2000/svg" xmlns:xlink="http://www.w3.org/1999/xlink" width="588" height="508"><defs/><g><text fill="#eeeeee" stroke="none" font-family="Arial" font-size="24px" font-style="normal" font-weight="normal" text-decoration="none" x="0" y="0"></text><text fill="#eeeeee" stroke="none" font-family="Arial" font-size="24px" font-style="normal" font-weight="normal" text-decoration="none" x="0" y="30"></text><text fill="#eeeeee" stroke="none" font-family="Arial" font-size="24px" font-style="normal" font-weight="normal" text-decoration="none" x="0" y="60"></text><text fill="#eeeeee" stroke="none" font-family="Arial" font-size="24px" font-style="normal" font-weight="normal" text-decoration="none" x="0" y="90"></text><text fill="#eeeeee" stroke="none" font-family="Arial" font-size="24px" font-style="normal" font-weight="normal" text-decoration="none" x="0" y="120"></text><text fill="#eeeeee" stroke="none" font-family="Arial" font-size="24px" font-style="normal" font-weight="normal" text-decoration="none" x="0" y="150"></text><text fill="#eeeeee" stroke="none" font-family="Arial" font-size="24px" font-style="normal" font-weight="normal" text-decoration="none" x="0" y="180"></text><text fill="#eeeeee" stroke="none" font-family="Arial" font-size="24px" font-style="normal" font-weight="normal" text-decoration="none" x="0" y="210"></text><text fill="#eeeeee" stroke="none" font-family="Arial" font-size="24px" font-style="normal" font-weight="normal" text-decoration="none" x="0" y="240"></text><text fill="#eeeeee" stroke="none" font-family="Arial" font-size="24px" font-style="normal" font-weight="normal" text-decoration="none" x="0" y="270"></text><text fill="#eeeeee" stroke="none" font-family="Arial" font-size="24px" font-style="normal" font-weight="normal" text-decoration="none" x="0" y="300"></text><text fill="#eeeeee" stroke="none" font-family="Arial" font-size="24px" font-style="normal" font-weight="normal" text-decoration="none" x="0" y="330"></text><text fill="#eeeeee" stroke="none" font-family="Arial" font-size="24px" font-style="normal" font-weight="normal" text-decoration="none" x="0" y="360"></text><text fill="#eeeeee" stroke="none" font-family="Arial" font-size="24px" font-style="normal" font-weight="normal" text-decoration="none" x="0" y="390"></text><text fill="#eeeeee" stroke="none" font-family="Arial" font-size="24px" font-style="normal" font-weight="normal" text-decoration="none" x="0" y="420"></text><text fill="#eeeeee" stroke="none" font-family="Arial" font-size="24px" font-style="normal" font-weight="normal" text-decoration="none" x="0" y="450"></text><text fill="#eeeeee" stroke="none" font-family="Arial" font-size="24px" font-style="normal" font-weight="normal" text-decoration="none" x="0" y="480"></text><text fill="#eeeeee" stroke="none" font-family="Arial" font-size="24px" font-style="normal" font-weight="normal" text-decoration="none" x="200" y="0"></text><text fill="#eeeeee" stroke="none" font-family="Arial" font-size="24px" font-style="normal" font-weight="normal" text-decoration="none" x="200" y="30"></text><text fill="#eeeeee" stroke="none" font-family="Arial" font-size="24px" font-style="normal" font-weight="normal" text-decoration="none" x="200" y="60"></text><text fill="#eeeeee" stroke="none" font-family="Arial" font-size="24px" font-style="normal" font-weight="normal" text-decoration="none" x="200" y="90"></text><text fill="#eeeeee" stroke="none" font-family="Arial" font-size="24px" font-style="normal" font-weight="normal" text-decoration="none" x="200" y="120"></text><text fill="#eeeeee" stroke="none" font-family="Arial" font-size="24px" font-style="normal" font-weight="normal" text-decoration="none" x="200" y="150"></text><text fill="#eeeeee" stroke="none" font-family="Arial" font-size="24px" font-style="normal" font-weight="normal" text-decoration="none" x="200" y="180"></text><text fill="#eeeeee" stroke="none" font-family="Arial" font-size="24px" font-style="normal" font-weight="normal" text-decoration="none" x="200" y="210"></text><text fill="#eeeeee" stroke="none" font-family="Arial" font-size="24px" font-style="normal" font-weight="normal" text-decoration="none" x="200" y="240"></text><text fill="#eeeeee" stroke="none" font-family="Arial" font-size="24px" font-style="normal" font-weight="normal" text-decoration="none" x="200" y="270"></text><text fill="#eeeeee" stroke="none" font-family="Arial" font-size="24px" font-style="normal" font-weight="normal" text-decoration="none" x="200" y="300"></text><text fill="#eeeeee" stroke="none" font-family="Arial" font-size="24px" font-style="normal" font-weight="normal" text-decoration="none" x="200" y="330"></text><text fill="#eeeeee" stroke="none" font-family="Arial" font-size="24px" font-style="normal" font-weight="normal" text-decoration="none" x="200" y="360"></text><text fill="#eeeeee" stroke="none" font-family="Arial" font-size="24px" font-style="normal" font-weight="normal" text-decoration="none" x="200" y="390"></text><text fill="#eeeeee" stroke="none" font-family="Arial" font-size="24px" font-style="normal" font-weight="normal" text-decoration="none" x="200" y="420"></text><text fill="#eeeeee" stroke="none" font-family="Arial" font-size="24px" font-style="normal" font-weight="normal" text-decoration="none" x="200" y="450"></text><text fill="#eeeeee" stroke="none" font-family="Arial" font-size="24px" font-style="normal" font-weight="normal" text-decoration="none" x="200" y="480"></text><text fill="#eeeeee" stroke="none" font-family="Arial" font-size="24px" font-style="normal" font-weight="normal" text-decoration="none" x="400" y="0"></text><text fill="#eeeeee" stroke="none" font-family="Arial" font-size="24px" font-style="normal" font-weight="normal" text-decoration="none" x="400" y="30"></text><text fill="#eeeeee" stroke="none" font-family="Arial" font-size="24px" font-style="normal" font-weight="normal" text-decoration="none" x="400" y="60"></text><text fill="#eeeeee" stroke="none" font-family="Arial" font-size="24px" font-style="normal" font-weight="normal" text-decoration="none" x="400" y="90"></text><text fill="#eeeeee" stroke="none" font-family="Arial" font-size="24px" font-style="normal" font-weight="normal" text-decoration="none" x="400" y="120"></text><text fill="#eeeeee" stroke="none" font-family="Arial" font-size="24px" font-style="normal" font-weight="normal" text-decoration="none" x="400" y="150"></text><text fill="#eeeeee" stroke="none" font-family="Arial" font-size="24px" font-style="normal" font-weight="normal" text-decoration="none" x="400" y="180"></text><text fill="#eeeeee" stroke="none" font-family="Arial" font-size="24px" font-style="normal" font-weight="normal" text-decoration="none" x="400" y="210"></text><text fill="#eeeeee" stroke="none" font-family="Arial" font-size="24px" font-style="normal" font-weight="normal" text-decoration="none" x="400" y="240"></text><text fill="#eeeeee" stroke="none" font-family="Arial" font-size="24px" font-style="normal" font-weight="normal" text-decoration="none" x="400" y="270"></text><text fill="#eeeeee" stroke="none" font-family="Arial" font-size="24px" font-style="normal" font-weight="normal" text-decoration="none" x="400" y="300"></text><text fill="#eeeeee" stroke="none" font-family="Arial" font-size="24px" font-style="normal" font-weight="normal" text-decoration="none" x="400" y="330"></text><text fill="#eeeeee" stroke="none" font-family="Arial" font-size="24px" font-style="normal" font-weight="normal" text-decoration="none" x="400" y="360"></text><text fill="#eeeeee" stroke="none" font-family="Arial" font-size="24px" font-style="normal" font-weight="normal" text-decoration="none" x="400" y="390"></text><text fill="#eeeeee" stroke="none" font-family="Arial" font-size="24px" font-style="normal" font-weight="normal" text-decoration="none" x="400" y="420"></text><text fill="#eeeeee" stroke="none" font-family="Arial" font-size="24px" font-style="normal" font-weight="normal" text-decoration="none" x="400" y="450"></text><text fill="#eeeeee" stroke="none" font-family="Arial" font-size="24px" font-style="normal" font-weight="normal" text-decoration="none" x="400" y="480"></text><g transform="translate(-78,-22) scale(1,1)"><path fill="none" stroke="#000000" d="M 88 32 L 656 32 L 656 520 L 88 520 L 88 32" stroke-miterlimit="10"/></g><g transform="translate(-78,-22) scale(1,1)"><path fill="#ffffff" stroke="none" d="M 88 32 L 88 54 L 294.76611328125 54 L 305.76611328125 43 L 305.76611328125 32 L 88 32"/></g><g transform="translate(-78,-22) scale(1,1)"><path fill="none" stroke="#000000" d="M 88 32 L 88 54 L 294.76611328125 54 L 305.76611328125 43 L 305.76611328125 32 L 88 32 L 88 32" stroke-miterlimit="10"/></g><g transform="translate(-78,-22) scale(1,1)"><g><path fill="none" stroke="none"/><text fill="#000000" stroke="none" font-family="Arial" font-size="13px" font-style="normal" font-weight="normal" text-decoration="none" x="179.9326171875" y="49.5">RandomChatClient</text></g></g><g transform="translate(-78,-22) scale(1,1)"><g><path fill="none" stroke="none"/><text fill="#000000" stroke="none" font-family="Arial" font-size="13px" font-style="normal" font-weight="bold" text-decoration="none" x="93" y="49.5">state machine</text></g></g><g transform="translate(-78,-22) scale(1,1)"><path fill="#C0C0C0" stroke="none" d="M 299 96.5 C 299 91.2532944 303.2532944 87 308.5 87 C 313.7467056 87 318 91.2532944 318 96.5 C 318 101.7467056 313.7467056 106 308.5 106 C 303.2532944 106 299 101.7467056 299 96.5 Z" opacity="0.2"/></g><g transform="translate(-78,-22) scale(1,1)"><path fill="#000000" stroke="none" d="M 292 89.5 C 292 84.2532944 296.2532944 80 301.5 80 C 306.7467056 80 311 84.2532944 311 89.5 C 311 94.7467056 306.7467056 99 301.5 99 C 296.2532944 99 292 94.7467056 292 89.5 Z"/></g><g transform="translate(-78,-22) scale(1,1)"><path fill="#C0C0C0" stroke="none" d="M 248 135 L 368.46630859375 135 Q 378.46630859375 135 378.46630859375 145 L 378.46630859375 164 Q 378.46630859375 174 368.46630859375 174 L 248 174 Q 238 174 238 164 L 238 145 Q 238 135 248 135 Z" opacity="0.2"/></g><g transform="translate(-78,-22) scale(1,1)"><path fill="#ffffff" stroke="none" d="M 241 128 L 361.46630859375 128 Q 371.46630859375 128 371.46630859375 138 L 371.46630859375 157 Q 371.46630859375 167 361.46630859375 167 L 241 167 Q 231 167 231 157 L 231 138 Q 231 128 241 128 Z"/></g><g transform="translate(-78,-22) scale(1,1)"><path fill="none" stroke="#000000" d="M 241 128 L 361.46630859375 128 Q 371.46630859375 128 371.46630859375 138 L 371.46630859375 157 Q 371.46630859375 167 361.46630859375 167 L 241 167 Q 231 167 231 157 L 231 138 Q 231 128 241 128 Z" stroke-miterlimit="10"/></g><g transform="translate(-78,-22) scale(1,1)"><g><path fill="none" stroke="none"/><text fill="#000000" stroke="none" font-family="Arial" font-size="13px" font-style="normal" font-weight="bold" text-decoration="none" x="240.171875" y="147.5">Connecting to Server</text></g></g><g transform="translate(-78,-22) scale(1,1)"><path fill="#C0C0C0" stroke="none" d="M 289 223 L 328 223 Q 338 223 338 233 L 338 252 Q 338 262 328 262 L 289 262 Q 279 262 279 252 L 279 233 Q 279 223 289 223 Z" opacity="0.2"/></g><g transform="translate(-78,-22) scale(1,1)"><path fill="#ffffff" stroke="none" d="M 282 216 L 321 216 Q 331 216 331 226 L 331 245 Q 331 255 321 255 L 282 255 Q 272 255 272 245 L 272 226 Q 272 216 282 216 Z"/></g><g transform="translate(-78,-22) scale(1,1)"><path fill="none" stroke="#000000" d="M 282 216 L 321 216 Q 331 216 331 226 L 331 245 Q 331 255 321 255 L 282 255 Q 272 255 272 245 L 272 226 Q 272 216 282 216 Z" stroke-miterlimit="10"/></g><g transform="translate(-78,-22) scale(1,1)"><g><path fill="none" stroke="none"/><text fill="#000000" stroke="none" font-family="Arial" font-size="13px" font-style="normal" font-weight="bold" text-decoration="none" x="291.02001953125" y="235.5">Idle</text></g></g><g transform="translate(-78,-22) scale(1,1)"><path fill="none" stroke="#000000" d="M 272 235 L 176 235 L 176 167 L 231 167" stroke-miterlimit="10"/></g><g transform="translate(-78,-22) scale(1,1)"><path fill="none" stroke="#000000" d="M 220.83732514237585 171.209517756016 L 231 167 L 220.83732514237585 162.790482243984" stroke-miterlimit="10"/></g><g transform="translate(-78,-22) scale(1,1)"><g><path fill="none" stroke="none"/><text fill="#000000" stroke="none" font-family="Arial" font-size="13px" font-style="normal" font-weight="normal" text-decoration="none" x="182.5" y="203.5">Connection lost</text></g></g><g transform="translate(-78,-22) scale(1,1)"><path fill="none" stroke="#000000" d="M 301 168 L 301 215" stroke-miterlimit="10"/></g><g transform="translate(-78,-22) scale(1,1)"><path fill="none" stroke="#000000" d="M 296.790482243984 204.83732514237585 L 301 215 L 305.209517756016 204.83732514237585" stroke-miterlimit="10"/></g><g transform="translate(-78,-22) scale(1,1)"><g><path fill="none" stroke="none"/><text fill="#000000" stroke="none" font-family="Arial" font-size="13px" font-style="normal" font-weight="normal" text-decoration="none" x="310.5" y="196.5">Connected</text></g></g><g transform="translate(-78,-22) scale(1,1)"><path fill="#C0C0C0" stroke="none" d="M 465 223 L 534.9072265625 223 Q 544.9072265625 223 544.9072265625 233 L 544.9072265625 252 Q 544.9072265625 262 534.9072265625 262 L 465 262 Q 455 262 455 252 L 455 233 Q 455 223 465 223 Z" opacity="0.2"/></g><g transform="translate(-78,-22) scale(1,1)"><path fill="#ffffff" stroke="none" d="M 458 216 L 527.9072265625 216 Q 537.9072265625 216 537.9072265625 226 L 537.9072265625 245 Q 537.9072265625 255 527.9072265625 255 L 458 255 Q 448 255 448 245 L 448 226 Q 448 216 458 216 Z"/></g><g transform="translate(-78,-22) scale(1,1)"><path fill="none" stroke="#000000" d="M 458 216 L 527.9072265625 216 Q 537.9072265625 216 537.9072265625 226 L 537.9072265625 245 Q 537.9072265625 255 527.9072265625 255 L 458 255 Q 448 255 448 245 L 448 226 Q 448 216 458 216 Z" stroke-miterlimit="10"/></g><g transform="translate(-78,-22) scale(1,1)"><g><path fill="none" stroke="none"/><text fill="#000000" stroke="none" font-family="Arial" font-size="13px" font-style="normal" font-weight="bold" text-decoration="none" x="454.299560546875" y="235.5">Create Room</text></g></g><g transform="translate(-78,-22) scale(1,1)"><path fill="#C0C0C0" stroke="none" d="M 249 327 L 605 327 Q 615 327 615 337 L 615 477 Q 615 487 605 487 L 249 487 Q 239 487 239 477 L 239 337 Q 239 327 249 327 Z" opacity="0.2"/></g><g transform="translate(-78,-22) scale(1,1)"><path fill="#ffffff" stroke="none" d="M 242 320 L 598 320 Q 608 320 608 330 L 608 470 Q 608 480 598 480 L 242 480 Q 232 480 232 470 L 232 330 Q 232 320 242 320 Z"/></g><g transform="translate(-78,-22) scale(1,1)"><path fill="none" stroke="#000000" d="M 242 320 L 598 320 Q 608 320 608 330 L 608 470 Q 608 480 598 480 L 242 480 Q 232 480 232 470 L 232 330 Q 232 320 242 320 Z" stroke-miterlimit="10"/></g><g transform="translate(-78,-22) scale(1,1)"><path fill="none" stroke="#000000" d="M 232 345 L 608 345" stroke-miterlimit="10"/></g><g transform="translate(-78,-22) scale(1,1)"><g><path fill="none" stroke="none"/><text fill="#000000" stroke="none" font-family="Arial" font-size="13px" font-style="normal" font-weight="bold" text-decoration="none" x="395.4345703125" y="339.5">In Room</text></g></g><g transform="translate(-78,-22) scale(1,1)"><path fill="#C0C0C0" stroke="none" d="M 265 411 L 402.103515625 411 Q 412.103515625 411 412.103515625 421 L 412.103515625 440 Q 412.103515625 450 402.103515625 450 L 265 450 Q 255 450 255 440 L 255 421 Q 255 411 265 411 Z" opacity="0.2"/></g><g transform="translate(-78,-22) scale(1,1)"><path fill="#ffffff" stroke="none" d="M 258 404 L 395.103515625 404 Q 405.103515625 404 405.103515625 414 L 405.103515625 433 Q 405.103515625 443 395.103515625 443 L 258 443 Q 248 443 248 433 L 248 414 Q 248 404 258 404 Z"/></g><g transform="translate(-78,-22) scale(1,1)"><path fill="none" stroke="#000000" d="M 258 404 L 395.103515625 404 Q 405.103515625 404 405.103515625 414 L 405.103515625 433 Q 405.103515625 443 395.103515625 443 L 258 443 Q 248 443 248 433 L 248 414 Q 248 404 258 404 Z" stroke-miterlimit="10"/></g><g transform="translate(-78,-22) scale(1,1)"><g><path fill="none" stroke="none"/><text fill="#000000" stroke="none" font-family="Arial" font-size="13px" font-style="normal" font-weight="bold" text-decoration="none" x="265.020751953125" y="423.5">Wait for another User</text></g></g><g transform="translate(-78,-22) scale(1,1)"><path fill="#C0C0C0" stroke="none" d="M 537 411 L 578.7109375 411 Q 588.7109375 411 588.7109375 421 L 588.7109375 440 Q 588.7109375 450 578.7109375 450 L 537 450 Q 527 450 527 440 L 527 421 Q 527 411 537 411 Z" opacity="0.2"/></g><g transform="translate(-78,-22) scale(1,1)"><path fill="#ffffff" stroke="none" d="M 530 404 L 571.7109375 404 Q 581.7109375 404 581.7109375 414 L 581.7109375 433 Q 581.7109375 443 571.7109375 443 L 530 443 Q 520 443 520 433 L 520 414 Q 520 404 530 404 Z"/></g><g transform="translate(-78,-22) scale(1,1)"><path fill="none" stroke="#000000" d="M 530 404 L 571.7109375 404 Q 581.7109375 404 581.7109375 414 L 581.7109375 433 Q 581.7109375 443 571.7109375 443 L 530 443 Q 520 443 520 433 L 520 414 Q 520 404 530 404 Z" stroke-miterlimit="10"/></g><g transform="translate(-78,-22) scale(1,1)"><g><path fill="none" stroke="none"/><text fill="#000000" stroke="none" font-family="Arial" font-size="13px" font-style="normal" font-weight="bold" text-decoration="none" x="526.6455078125" y="423.5">Chatting</text></g></g><g transform="translate(-78,-22) scale(1,1)"><path fill="none" stroke="#000000" d="M 301 100 L 301 127" stroke-miterlimit="10"/></g><g transform="translate(-78,-22) scale(1,1)"><path fill="none" stroke="#000000" d="M 296.790482243984 116.83732514237585 L 301 127 L 305.209517756016 116.83732514237585" stroke-miterlimit="10"/></g><g transform="translate(-78,-22) scale(1,1)"><path fill="none" stroke="#000000" d="M 550 404 L 550 376 M 550 376 A 8 8 0 0 0 542 368 L 334 368 M 334 368 A 8 8 0 0 0 326 376 L 326 404" stroke-miterlimit="10"/></g><g transform="translate(-78,-22) scale(1,1)"><path fill="none" stroke="#000000" d="M 321.790482243984 393.83732514237585 L 326 404 L 330.209517756016 393.83732514237585" stroke-miterlimit="10"/></g><g transform="translate(-78,-22) scale(1,1)"><g><path fill="none" stroke="none"/><text fill="#000000" stroke="none" font-family="Arial" font-size="13px" font-style="normal" font-weight="normal" text-decoration="none" x="381.5" y="389.5">Exit or time expired</text></g></g><g transform="translate(-78,-22) scale(1,1)"><path fill="none" stroke="#000000" d="M 406 423 L 519 423" stroke-miterlimit="10"/></g><g transform="translate(-78,-22) scale(1,1)"><path fill="none" stroke="#000000" d="M 508.83732514237585 427.209517756016 L 519 423 L 508.83732514237585 418.790482243984" stroke-miterlimit="10"/></g><g transform="translate(-78,-22) scale(1,1)"><g><path fill="none" stroke="none"/><text fill="#000000" stroke="none" font-family="Arial" font-size="13px" font-style="normal" font-weight="normal" text-decoration="none" x="443.5" y="414.5">Found</text></g></g><g transform="translate(-78,-22) scale(1,1)"><path fill="none" stroke="#000000" d="M 280 255 L 280 320" stroke-miterlimit="10"/></g><g transform="translate(-78,-22) scale(1,1)"><path fill="none" stroke="#000000" d="M 275.790482243984 309.83732514237585 L 280 320 L 284.209517756016 309.83732514237585" stroke-miterlimit="10"/></g><g transform="translate(-78,-22) scale(1,1)"><g><path fill="none" stroke="none"/><text fill="#000000" stroke="none" font-family="Arial" font-size="13px" font-style="normal" font-weight="normal" text-decoration="none" x="210.64453125" y="283.5">Enter in a</text><text fill="#000000" stroke="none" font-family="Arial" font-size="13px" font-style="normal" font-weight="normal" text-decoration="none" x="221.127685546875" y="296.5">Room</text></g></g><g transform="translate(-78,-22) scale(1,1)"><path fill="none" stroke="#000000" d="M 332 235 L 447 235" stroke-miterlimit="10"/></g><g transform="translate(-78,-22) scale(1,1)"><path fill="none" stroke="#000000" d="M 436.83732514237585 239.209517756016 L 447 235 L 436.83732514237585 230.790482243984" stroke-miterlimit="10"/></g><g transform="translate(-78,-22) scale(1,1)"><g><path fill="none" stroke="none"/><text fill="#000000" stroke="none" font-family="Arial" font-size="13px" font-style="normal" font-weight="normal" text-decoration="none" x="339.004150390625" y="219.5">Create Room btn</text><text fill="#000000" stroke="none" font-family="Arial" font-size="13px" font-style="normal" font-weight="normal" text-decoration="none" x="365.37548828125" y="232.5">pressed</text></g></g><g transform="translate(-78,-22) scale(1,1)"><path fill="none" stroke="#000000" d="M 296 320 L 296 255" stroke-miterlimit="10"/></g><g transform="translate(-78,-22) scale(1,1)"><path fill="none" stroke="#000000" d="M 300.209517756016 265.16267485762415 L 296 255 L 291.790482243984 265.16267485762415" stroke-miterlimit="10"/></g><g transform="translate(-78,-22) scale(1,1)"><g><path fill="none" stroke="none"/><text fill="#000000" stroke="none" font-family="Arial" font-size="13px" font-style="normal" font-weight="normal" text-decoration="none" x="298.57177734375" y="290.5">User not</text><text fill="#000000" stroke="none" font-family="Arial" font-size="13px" font-style="normal" font-weight="normal" text-decoration="none" x="306.871337890625" y="303.5">found</text></g></g><g transform="translate(-78,-22) scale(1,1)"><path fill="none" stroke="#000000" d="M 376 320 L 376 263 M 376 263 A 8 8 0 0 0 368 255 L 331 255" stroke-miterlimit="10"/></g><g transform="translate(-78,-22) scale(1,1)"><path fill="none" stroke="#000000" d="M 341.16267485762415 250.790482243984 L 331 255 L 341.16267485762415 259.209517756016" stroke-miterlimit="10"/></g><g transform="translate(-78,-22) scale(1,1)"><g><path fill="none" stroke="none"/><text fill="#000000" stroke="none" font-family="Arial" font-size="13px" font-style="normal" font-weight="normal" text-decoration="none" x="383.5" y="315.5">Exit From Room</text></g></g><g transform="translate(-78,-22) scale(1,1)"><path fill="none" stroke="#000000" d="M 273 379 L 273 404" stroke-miterlimit="10"/></g><g transform="translate(-78,-22) scale(1,1)"><path fill="none" stroke="#000000" d="M 268.790482243984 393.83732514237585 L 273 404 L 277.209517756016 393.83732514237585" stroke-miterlimit="10"/></g><g transform="translate(-78,-22) scale(1,1)"><path fill="#C0C0C0" stroke="none" d="M 271 376.5 C 271 371.2532944 275.2532944 367 280.5 367 C 285.7467056 367 290 371.2532944 290 376.5 C 290 381.7467056 285.7467056 386 280.5 386 C 275.2532944 386 271 381.7467056 271 376.5 Z" opacity="0.2"/></g><g transform="translate(-78,-22) scale(1,1)"><path fill="#000000" stroke="none" d="M 264 369.5 C 264 364.2532944 268.2532944 360 273.5 360 C 278.7467056 360 283 364.2532944 283 369.5 C 283 374.7467056 278.7467056 379 273.5 379 C 268.2532944 379 264 374.7467056 264 369.5 Z"/></g><g transform="translate(-78,-22) scale(1,1)"><path fill="none" stroke="#000000" d="M 232 368 L 184 368 M 184 368 A 8 8 0 0 1 176 360 L 176 175 M 176 175 A 8 8 0 0 1 184 167 L 231 167" stroke-miterlimit="10"/></g><g transform="translate(-78,-22) scale(1,1)"><path fill="none" stroke="#000000" d="M 220.83732514237585 171.209517756016 L 231 167 L 220.83732514237585 162.790482243984" stroke-miterlimit="10"/></g></g></svg>