<svg version="1.1" xmlns="http://www.w3.org/2000/svg" xmlns:xlink="http://www.w3.org/1999/xlink" width="586" height="916"><defs/><g><text fill="#eeeeee" stroke="none" font-family="Arial" font-size="24px" font-style="normal" font-weight="normal" text-decoration="none" x="0" y="0"> </text><text fill="#eeeeee" stroke="none" font-family="Arial" font-size="24px" font-style="normal" font-weight="normal" text-decoration="none" x="0" y="30"> </text><text fill="#eeeeee" stroke="none" font-family="Arial" font-size="24px" font-style="normal" font-weight="normal" text-decoration="none" x="0" y="60"> </text><text fill="#eeeeee" stroke="none" font-family="Arial" font-size="24px" font-style="normal" font-weight="normal" text-decoration="none" x="0" y="90"> </text><text fill="#eeeeee" stroke="none" font-family="Arial" font-size="24px" font-style="normal" font-weight="normal" text-decoration="none" x="0" y="120"> </text><text fill="#eeeeee" stroke="none" font-family="Arial" font-size="24px" font-style="normal" font-weight="normal" text-decoration="none" x="0" y="150"> </text><text fill="#eeeeee" stroke="none" font-family="Arial" font-size="24px" font-style="normal" font-weight="normal" text-decoration="none" x="0" y="180"> </text><text fill="#eeeeee" stroke="none" font-family="Arial" font-size="24px" font-style="normal" font-weight="normal" text-decoration="none" x="0" y="210"> </text><text fill="#eeeeee" stroke="none" font-family="Arial" font-size="24px" font-style="normal" font-weight="normal" text-decoration="none" x="0" y="240"> </text><text fill="#eeeeee" stroke="none" font-family="Arial" font-size="24px" font-style="normal" font-weight="normal" text-decoration="none" x="0" y="270"> </text><text fill="#eeeeee" stroke="none" font-family="Arial" font-size="24px" font-style="normal" font-weight="normal" text-decoration="none" x="0" y="300"> </text><text fill="#eeeeee" stroke="none" font-family="Arial" font-size="24px" font-style="normal" font-weight="normal" text-decoration="none" x="0" y="330"> </text><text fill="#eeeeee" stroke="none" font-family="Arial" font-size="24px" font-style="normal" font-weight="normal" text-decoration="none" x="0" y="360"> </text><text fill="#eeeeee" stroke="none" font-family="Arial" font-size="24px" font-style="normal" font-weight="normal" text-decoration="none" x="0" y="390"> </text><text fill="#eeeeee" stroke="none" font-family="Arial" font-size="24px" font-style="normal" font-weight="normal" text-decoration="none" x="0" y="420"> </text><text fill="#eeeeee" stroke="none" font-family="Arial" font-size="24px" font-style="normal" font-weight="normal" text-decoration="none" x="0" y="450"> </text><text fill="#eeeeee" stroke="none" font-family="Arial" font-size="24px" font-style="normal" font-weight="normal" text-decoration="none" x="0" y="480"> </text><text fill="#eeeeee" stroke="none" font-family="Arial" font-size="24px" font-style="normal" font-weight="normal" text-decoration="none" x="0" y="510"> </text><text fill="#eeeeee" stroke="none" font-family="Arial" font-size="24px" font-style="normal" font-weight="normal" text-decoration="none" x="0" y="540"> </text><text fill="#eeeeee" stroke="none" font-family="Arial" font-size="24px" font-style="normal" font-weight="normal" text-decoration="none" x="0" y="570"> </text><text fill="#eeeeee" stroke="none" font-family="Arial" font-size="24px" font-style="normal" font-weight="normal" text-decoration="none" x="0" y="600"> </text><text fill="#eeeeee" stroke="none" font-family="Arial" font-size="24px" font-style="normal" font-weight="normal" text-decoration="none" x="0" y="630"> </text><text fill="#eeeeee" stroke="none" font-family="Arial" font-size="24px" font-style="normal" font-weight="normal" text-decoration="none" x="0" y="660"> </text><text fill="#eeeeee" stroke="none" font-family="Arial" font-size="24px" font-style="normal" font-weight="normal" text-decoration="none" x="0" y="690"> </text><text fill="#eeeeee" stroke="none" font-family="Arial" font-size="24px" font-style="normal" font-weight="normal" text-decoration="none" x="0" y="720"> </text><text fill="#eeeeee" stroke="none" font-family="Arial" font-size="24px" font-style="normal" font-weight="normal" text-decoration="none" x="0" y="750"> </text><text fill="#eeeeee" stroke="none" font-family="Arial" font-size="24px" font-style="normal" font-weight="normal" text-decoration="none" x="0" y="780"> </text><text fill="#eeeeee" stroke="none" font-family="Arial" font-size="24px" font-style="normal" font-weight="normal" text-decoration="none" x="0" y="810"> </text><text fill="#eeeeee" stroke="none" font-family="Arial" font-size="24px" font-style="normal" font-weight="normal" text-decoration="none" x="0" y="840"> </text><text fill="#eeeeee" stroke="none" font-family="Arial" font-size="24px" font-style="normal" font-weight="normal" text-decoration="none" x="0" y="870"> </text><text fill="#eeeeee" stroke="none" font-family="Arial" font-size="24px" font-style="normal" font-weight="normal" text-decoration="none" x="0" y="900"> </text><text fill="#eeeeee" stroke="none" font-family="Arial" font-size="24px" font-style="normal" font-weight="normal" text-decoration="none" x="200" y="0"> </text><text fill="#eeeeee" stroke="none" font-family="Arial" font-size="24px" font-style="normal" font-weight="normal" text-decoration="none" x="200" y="30"> </text><text fill="#eeeeee" stroke="none" font-family="Arial" font-size="24px" font-style="normal" font-weight="normal" text-decoration="none" x="200" y="60"> </text><text fill="#eeeeee" stroke="none" font-family="Arial" font-size="24px" font-style="normal" font-weight="normal" text-decoration="none" x="200" y="90"> </text><text fill="#eeeeee" stroke="none" font-family="Arial" font-size="24px" font-style="normal" font-weight="normal" text-decoration="none" x="200" y="120"> </text><text fill="#eeeeee" stroke="none" font-family="Arial" font-size="24px" font-style="normal" font-weight="normal" text-decoration="none" x="200" y="150"> </text><text fill="#eeeeee" stroke="none" font-family="Arial" font-size="24px" font-style="normal" font-weight="normal" text-decoration="none" x="200" y="180"> </text><text fill="#eeeeee" stroke="none" font-family="Arial" font-size="24px" font-style="normal" font-weight="normal" text-decoration="none" x="200" y="210"> </text><text fill="#eeeeee" stroke="none" font-family="Arial" font-size="24px" font-style="normal" font-weight="normal" text-decoration="none" x="200" y="240"> </text><text fill="#eeeeee" stroke="none" font-family="Arial" font-size="24px" font-style="normal" font-weight="normal" text-decoration="none" x="200" y="270"> </text><text fill="#eeeeee" stroke="none" font-family="Arial" font-size="24px" font-style="normal" font-weight="normal" text-decoration="none" x="200" y="300"> </text><text fill="#eeeeee" stroke="none" font-family="Arial" font-size="24px" font-style="normal" font-weight="normal" text-decoration="none" x="200" y="330"> </text><text fill="#eeeeee" stroke="none" font-family="Arial" font-size="24px" font-style="normal" font-weight="normal" text-decoration="none" x="200" y="360"> </text><text fill="#eeeeee" stroke="none" font-family="Arial" font-size="24px" font-style="normal" font-weight="normal" text-decoration="none" x="200" y="390"> </text><text fill="#eeeeee" stroke="none" font-family="Arial" font-size="24px" font-style="normal" font-weight="normal" text-decoration="none" x="200" y="420"> </text><text fill="#eeeeee" stroke="none" font-family="Arial" font-size="24px" font-style="normal" font-weight="normal" text-decoration="none" x="200" y="450"> </text><text fill="#eeeeee" stroke="none" font-family="Arial" font-size="24px" font-style="normal" font-weight="normal" text-decoration="none" x="200" y="480"> </text><text fill="#eeeeee" stroke="none" font-family="Arial" font-size="24px" font-style="normal" font-weight="normal" text-decoration="none" x="200" y="510"> </text><text fill="#eeeeee" stroke="none" font-family="Arial" font-size="24px" font-style="normal" font-weight="normal" text-decoration="none" x="200" y="540"> </text><text fill="#eeeeee" stroke="none" font-family="Arial" font-size="24px" font-style="normal" font-weight="normal" text-decoration="none" x="200" y="570"> </text><text fill="#eeeeee" stroke="none" font-family="Arial" font-size="24px" font-style="normal" font-weight="normal" text-decoration="none" x="200" y="600"> </text><text fill="#eeeeee" stroke="none" font-family="Arial" font-size="24px" font-style="normal" font-weight="normal" text-decoration="none" x="200" y="630"> </text><text fill="#eeeeee" stroke="none" font-family="Arial" font-size="24px" font-style="normal" font-weight="normal" text-decoration="none" x="200" y="660"> </text><text fill="#eeeeee" stroke="none" font-family="Arial" font-size="24px" font-style="normal" font-weight="normal" text-decoration="none" x="200" y="690"> </text><text fill="#eeeeee" stroke="none" font-family="Arial" font-size="24px" font-style="normal" font-weight="normal" text-decoration="none" x="200" y="720"> </text><text fill="#eeeeee" stroke="none" font-family="Arial" font-size="24px" font-style="normal" font-weight="normal" text-decoration="none" x="200" y="750"> </text><text fill="#eeeeee" stroke="none" font-family="Arial" font-size="24px" font-style="normal" font-weight="normal" text-decoration="none" x="200" y="780"> </text><text fill="#eeeeee" stroke="none" font-family="Arial" font-size="24px" font-style="normal" font-weight="normal" text-decoration="none" x="200" y="810"> </text><text fill="#eeeeee" stroke="none" font-family="Arial" font-size="24px" font-style="normal" font-weight="normal" text-decoration="none" x="200" y="840"> </text><text fill="#eeeeee" stroke="none" font-family="Arial" font-size="24px" font-style="normal" font-weight="normal" text-decoration="none" x="200" y="870"> </text><text fill="#eeeeee" stroke="none" font-family="Arial" font-size="24px" font-style="normal" font-weight="normal" text-decoration="none" x="200" y="900"> </text><text fill="#eeeeee" stroke="none" font-family="Arial" font-size="24px" font-style="normal" font-weight="normal" text-decoration="none" x="400" y="0"> </text><text fill="#eeeeee" stroke="none" font-family="Arial" font-size="24px" font-style="normal" font-weight="normal" text-decoration="none" x="400" y="30"> </text><text fill="#eeeeee" stroke="none" font-family="Arial" font-size="24px" font-style="normal" font-weight="normal" text-decoration="none" x="400" y="60"> </text><text fill="#eeeeee" stroke="none" font-family="Arial" font-size="24px" font-style="normal" font-weight="normal" text-decoration="none" x="400" y="90"> </text><text fill="#eeeeee" stroke="none" font-family="Arial" font-size="24px" font-style="normal" font-weight="normal" text-decoration="none" x="400" y="120"> </text><text fill="#eeeeee" stroke="none" font-family="Arial" font-size="24px" font-style="normal" font-weight="normal" text-decoration="none" x="400" y="150"> </text><text fill="#eeeeee" stroke="none" font-family="Arial" font-size="24px" font-style="normal" font-weight="normal" text-decoration="none" x="400" y="180"> </text><text fill="#eeeeee" stroke="none" font-family="Arial" font-size="24px" font-style="normal" font-weight="normal" text-decoration="none" x="400" y="210"> </text><text fill="#eeeeee" stroke="none" font-family="Arial" font-size="24px" font-style="normal" font-weight="normal" text-decoration="none" x="400" y="240"> </text><text fill="#eeeeee" stroke="none" font-family="Arial" font-size="24px" font-style="normal" font-weight="normal" text-decoration="none" x="400" y="270"> </text><text fill="#eeeeee" stroke="none" font-family="Arial" font-size="24px" font-style="normal" font-weight="normal" text-decoration="none" x="400" y="300"> </text><text fill="#eeeeee" stroke="none" font-family="Arial" font-size="24px" font-style="normal" font-weight="normal" text-decoration="none" x="400" y="330"> </text><text fill="#eeeeee" stroke="none" font-family="Arial" font-size="24px" font-style="normal" font-weight="normal" text-decoration="none" x="400" y="360"> </text><text fill="#eeeeee" stroke="none" font-family="Arial" font-size="24px" font-style="normal" font-weight="normal" text-decoration="none" x="400" y="390"> </text><text fill="#eeeeee" stroke="none" font-family="Arial" font-size="24px" font-style="normal" font-weight="normal" text-decoration="none" x="400" y="420"> </text><text fill="#eeeeee" stroke="none" font-family="Arial" font-size="24px" font-style="normal" font-weight="normal" text-decoration="none" x="400" y="450"> </text><text fill="#eeeeee" stroke="none" font-family="Arial" font-size="24px" font-style="normal" font-weight="normal" text-decoration="none" x="400" y="480"> </text><text fill="#eeeeee" stroke="none" font-family="Arial" font-size="24px" font-style="normal" font-weight="normal" text-decoration="none" x="400" y="510"> </text><text fill="#eeeeee" stroke="none" font-family="Arial" font-size="24px" font-style="normal" font-weight="normal" text-decoration="none" x="400" y="540"> </text><text fill="#eeeeee" stroke="none" font-family="Arial" font-size="24px" font-style="normal" font-weight="normal" text-decoration="none" x="400" y="570"> </text><text fill="#eeeeee" stroke="none" font-family="Arial" font-size="24px" font-style="normal" font-weight="normal" text-decoration="none" x="400" y="600"> </text><text fill="#eeeeee" stroke="none" font-family="Arial" font-size="24px" font-style="normal" font-weight="normal" text-decoration="none" x="400" y="630"> </text><text fill="#eeeeee" stroke="none" font-family="Arial" font-size="24px" font-style="normal" font-weight="normal" text-decoration="none" x="400" y="660"> </text><text fill="#eeeeee" stroke="none" font-family="Arial" font-size="24px" font-style="normal" font-weight="normal" text-decoration="none" x="400" y="690"> </text><text fill="#eeeeee" stroke="none" font-family="Arial" font-size="24px" font-style="normal" font-weight="normal" text-decoration="none" x="400" y="720"> </text><text fill="#eeeeee" stroke="none" font-family="Arial" font-size="24px" font-style="normal" font-weight="normal" text-decoration="none" x="400" y="750"> </text><text fill="#eeeeee" stroke="none" font-family="Arial" font-size="24px" font-style="normal" font-weight="normal" text-decoration="none" x="400" y="780"> </text><text fill="#eeeeee" stroke="none" font-family="Arial" font-size="24px" font-style="normal" font-weight="normal" text-decoration="none" x="400" y="810"> </text><text fill="#eeeeee" stroke="none" font-family="Arial" font-size="24px" font-style="normal" font-weight="normal" text-decoration="none" x="400" y="840"> </text><text fill="#eeeeee" stroke="none" font-family="Arial" font-size="24px" font-style="normal" font-weight="normal" text-decoration="none" x="400" y="870"> </text><text fill="#eeeeee" stroke="none" font-family="Arial" font-size="24px" font-style="normal" font-weight="normal" text-decoration="none" x="400" y="900"> </text><g transform="translate(-102,-70) scale(1,1)"><rect fill="#C0C0C0" stroke="none" x="251" y="87" width="434" height="896" opacity="0.2"/></g><g transform="translate(-102,-70) scale(1,1)"><rect fill="#ffffff" stroke="none" x="244" y="80" width="434" height="896"/></g><g transform="translate(-102,-70) scale(1,1)"><path fill="none" stroke="#000000" d="M 244 80 L 678 80 L 678 976 L 244 976 L 244 80 Z Z" stroke-miterlimit="10"/></g><g transform="translate(-102,-70) scale(1,1)"><g><path fill="none" stroke="none"/><text fill="#000000" stroke="none" font-family="Arial" font-size="13px" font-style="normal" font-weight="bold" text-decoration="none" x="410.050537109375" y="99.5">RandomChat app</text></g></g><g transform="translate(-102,-70) scale(1,1)"><path fill="#ffffff" stroke="none" d="M 128.40935031960228 417.68 C 128.40935031960228 412.886167936 132.29519264454774 409 137.088623046875 409 C 141.88205344920226 409 145.76789577414772 412.886167936 145.76789577414772 417.68 C 145.76789577414772 422.473832064 141.88205344920226 426.36 137.088623046875 426.36 C 132.29519264454774 426.36 128.40935031960228 422.473832064 128.40935031960228 417.68 Z"/></g><g transform="translate(-102,-70) scale(1,1)"><path fill="none" stroke="#000000" d="M 128.40935031960228 417.68 C 128.40935031960228 412.886167936 132.29519264454774 409 137.088623046875 409 C 141.88205344920226 409 145.76789577414772 412.886167936 145.76789577414772 417.68 C 145.76789577414772 422.473832064 141.88205344920226 426.36 137.088623046875 426.36 C 132.29519264454774 426.36 128.40935031960228 422.473832064 128.40935031960228 417.68 Z" stroke-miterlimit="10"/></g><g transform="translate(-102,-70) scale(1,1)"><path fill="none" stroke="#000000" d="M 137.088623046875 426.36 L 137.088623046875 443.64" stroke-miterlimit="10"/></g><g transform="translate(-102,-70) scale(1,1)"><path fill="none" stroke="#000000" d="M 127.89880486505683 432.84 L 146.27844122869317 432.84" stroke-miterlimit="10"/></g><g transform="translate(-102,-70) scale(1,1)"><path fill="none" stroke="#000000" d="M 137.088623046875 443.64 L 124.32498668323865 461" stroke-miterlimit="10"/></g><g transform="translate(-102,-70) scale(1,1)"><path fill="none" stroke="#000000" d="M 137.088623046875 443.64 L 149.85225941051135 461" stroke-miterlimit="10"/></g><g transform="translate(-102,-70) scale(1,1)"><g><path fill="none" stroke="none"/><text fill="#000000" stroke="none" font-family="Arial" font-size="13px" font-style="normal" font-weight="bold" text-decoration="none" x="123.364990234375" y="481.5">User</text></g></g><g transform="translate(-102,-70) scale(1,1)"><path fill="#C0C0C0" stroke="none" d="M 329 169 C 329 154.6405952 391.2324128 143 468 143 C 544.7675872 143 607 154.6405952 607 169 C 607 183.3594048 544.7675872 195 468 195 C 391.2324128 195 329 183.3594048 329 169 Z" opacity="0.2"/></g><g transform="translate(-102,-70) scale(1,1)"><path fill="#ffffff" stroke="none" d="M 322 162 C 322 147.6405952 384.2324128 136 461 136 C 537.7675872 136 600 147.6405952 600 162 C 600 176.3594048 537.7675872 188 461 188 C 384.2324128 188 322 176.3594048 322 162 Z"/></g><g transform="translate(-102,-70) scale(1,1)"><path fill="none" stroke="#000000" d="M 322 162 C 322 147.6405952 384.2324128 136 461 136 C 537.7675872 136 600 147.6405952 600 162 C 600 176.3594048 537.7675872 188 461 188 C 384.2324128 188 322 176.3594048 322 162 Z" stroke-miterlimit="10"/></g><g transform="translate(-102,-70) scale(1,1)"><g><path fill="none" stroke="none"/><text fill="#000000" stroke="none" font-family="Arial" font-size="13px" font-style="normal" font-weight="bold" text-decoration="none" x="399.2119140625" y="162.5">Entrare in una stanza</text><text fill="#000000" stroke="none" font-family="Arial" font-size="13px" font-style="normal" font-weight="bold" text-decoration="none" x="436.4345703125" y="175.5">tematica</text></g></g><g transform="translate(-102,-70) scale(1,1)"><path fill="#C0C0C0" stroke="none" d="M 387 485 C 387 470.6405952 423.2649312 459 468 459 C 512.7350688 459 549 470.6405952 549 485 C 549 499.3594048 512.7350688 511 468 511 C 423.2649312 511 387 499.3594048 387 485 Z" opacity="0.2"/></g><g transform="translate(-102,-70) scale(1,1)"><path fill="#ffffff" stroke="none" d="M 380 478 C 380 463.6405952 416.2649312 452 461 452 C 505.7350688 452 542 463.6405952 542 478 C 542 492.3594048 505.7350688 504 461 504 C 416.2649312 504 380 492.3594048 380 478 Z"/></g><g transform="translate(-102,-70) scale(1,1)"><path fill="none" stroke="#000000" d="M 380 478 C 380 463.6405952 416.2649312 452 461 452 C 505.7350688 452 542 463.6405952 542 478 C 542 492.3594048 505.7350688 504 461 504 C 416.2649312 504 380 492.3594048 380 478 Z" stroke-miterlimit="10"/></g><g transform="translate(-102,-70) scale(1,1)"><g><path fill="none" stroke="none"/><text fill="#000000" stroke="none" font-family="Arial" font-size="13px" font-style="normal" font-weight="bold" text-decoration="none" x="441.490478515625" y="478.5">Inviare</text><text fill="#000000" stroke="none" font-family="Arial" font-size="13px" font-style="normal" font-weight="bold" text-decoration="none" x="433.181396484375" y="491.5">messaggi</text></g></g><g transform="translate(-102,-70) scale(1,1)"><path fill="#C0C0C0" stroke="none" d="M 382 662 C 382 647.6405952 420.7273648 636 468.5 636 C 516.2726352 636 555 647.6405952 555 662 C 555 676.3594048 516.2726352 688 468.5 688 C 420.7273648 688 382 676.3594048 382 662 Z" opacity="0.2"/></g><g transform="translate(-102,-70) scale(1,1)"><path fill="#ffffff" stroke="none" d="M 375 655 C 375 640.6405952 413.7273648 629 461.5 629 C 509.2726352 629 548 640.6405952 548 655 C 548 669.3594048 509.2726352 681 461.5 681 C 413.7273648 681 375 669.3594048 375 655 Z"/></g><g transform="translate(-102,-70) scale(1,1)"><path fill="none" stroke="#000000" d="M 375 655 C 375 640.6405952 413.7273648 629 461.5 629 C 509.2726352 629 548 640.6405952 548 655 C 548 669.3594048 509.2726352 681 461.5 681 C 413.7273648 681 375 669.3594048 375 655 Z" stroke-miterlimit="10"/></g><g transform="translate(-102,-70) scale(1,1)"><g><path fill="none" stroke="none"/><text fill="#000000" stroke="none" font-family="Arial" font-size="13px" font-style="normal" font-weight="bold" text-decoration="none" x="422.471435546875" y="655.5">Chiudere una</text><text fill="#000000" stroke="none" font-family="Arial" font-size="13px" font-style="normal" font-weight="bold" text-decoration="none" x="449.214111328125" y="668.5">chat</text></g></g><g transform="translate(-102,-70) scale(1,1)"><path fill="#C0C0C0" stroke="none" d="M 331 248 C 331 233.6405952 392.56084 222 468.5 222 C 544.43916 222 606 233.6405952 606 248 C 606 262.3594048 544.43916 274 468.5 274 C 392.56084 274 331 262.3594048 331 248 Z" opacity="0.2"/></g><g transform="translate(-102,-70) scale(1,1)"><path fill="#ffffff" stroke="none" d="M 324 241 C 324 226.6405952 385.56084 215 461.5 215 C 537.43916 215 599 226.6405952 599 241 C 599 255.3594048 537.43916 267 461.5 267 C 385.56084 267 324 255.3594048 324 241 Z"/></g><g transform="translate(-102,-70) scale(1,1)"><path fill="none" stroke="#000000" d="M 324 241 C 324 226.6405952 385.56084 215 461.5 215 C 537.43916 215 599 226.6405952 599 241 C 599 255.3594048 537.43916 267 461.5 267 C 385.56084 267 324 255.3594048 324 241 Z" stroke-miterlimit="10"/></g><g transform="translate(-102,-70) scale(1,1)"><g><path fill="none" stroke="none"/><text fill="#000000" stroke="none" font-family="Arial" font-size="13px" font-style="normal" font-weight="bold" text-decoration="none" x="400.438720703125" y="241.5">Uscire da una stanza</text><text fill="#000000" stroke="none" font-family="Arial" font-size="13px" font-style="normal" font-weight="bold" text-decoration="none" x="436.9345703125" y="254.5">tematica</text></g></g><g transform="translate(-102,-70) scale(1,1)"><path fill="#C0C0C0" stroke="none" d="M 303 929 C 303 914.6405952 376.873008 903 468 903 C 559.126992 903 633 914.6405952 633 929 C 633 943.3594048 559.126992 955 468 955 C 376.873008 955 303 943.3594048 303 929 Z" opacity="0.2"/></g><g transform="translate(-102,-70) scale(1,1)"><path fill="#ffffff" stroke="none" d="M 296 922 C 296 907.6405952 369.873008 896 461 896 C 552.126992 896 626 907.6405952 626 922 C 626 936.3594048 552.126992 948 461 948 C 369.873008 948 296 936.3594048 296 922 Z"/></g><g transform="translate(-102,-70) scale(1,1)"><path fill="none" stroke="#000000" d="M 296 922 C 296 907.6405952 369.873008 896 461 896 C 552.126992 896 626 907.6405952 626 922 C 626 936.3594048 552.126992 948 461 948 C 369.873008 948 296 936.3594048 296 922 Z" stroke-miterlimit="10"/></g><g transform="translate(-102,-70) scale(1,1)"><g><path fill="none" stroke="none"/><text fill="#000000" stroke="none" font-family="Arial" font-size="13px" font-style="normal" font-weight="bold" text-decoration="none" x="359.815185546875" y="922.5">Vedere quanti utenti sono connessi</text><text fill="#000000" stroke="none" font-family="Arial" font-size="13px" font-style="normal" font-weight="bold" text-decoration="none" x="422.333251953125" y="935.5">in una stanza</text></g></g><g transform="translate(-102,-70) scale(1,1)"><path fill="#C0C0C0" stroke="none" d="M 339 573.5 C 339 553.8938896 396.7552608 538 468 538 C 539.2447392 538 597 553.8938896 597 573.5 C 597 593.1061104 539.2447392 609 468 609 C 396.7552608 609 339 593.1061104 339 573.5 Z" opacity="0.2"/></g><g transform="translate(-102,-70) scale(1,1)"><path fill="#ffffff" stroke="none" d="M 332 566.5 C 332 546.8938896 389.7552608 531 461 531 C 532.2447392 531 590 546.8938896 590 566.5 C 590 586.1061104 532.2447392 602 461 602 C 389.7552608 602 332 586.1061104 332 566.5 Z"/></g><g transform="translate(-102,-70) scale(1,1)"><path fill="none" stroke="#000000" d="M 332 566.5 C 332 546.8938896 389.7552608 531 461 531 C 532.2447392 531 590 546.8938896 590 566.5 C 590 586.1061104 532.2447392 602 461 602 C 389.7552608 602 332 586.1061104 332 566.5 Z" stroke-miterlimit="10"/></g><g transform="translate(-102,-70) scale(1,1)"><g><path fill="none" stroke="none"/><text fill="#000000" stroke="none" font-family="Arial" font-size="13px" font-style="normal" font-weight="bold" text-decoration="none" x="390.195068359375" y="567">Inviare messaggi tramite</text><text fill="#000000" stroke="none" font-family="Arial" font-size="13px" font-style="normal" font-weight="bold" text-decoration="none" x="406.435546875" y="580">speach recognition</text></g></g><g transform="translate(-102,-70) scale(1,1)"><path fill="#C0C0C0" stroke="none" d="M 339 327 C 339 312.6405952 396.9791184 301 468.5 301 C 540.0208815999999 301 598 312.6405952 598 327 C 598 341.3594048 540.0208815999999 353 468.5 353 C 396.9791184 353 339 341.3594048 339 327 Z" opacity="0.2"/></g><g transform="translate(-102,-70) scale(1,1)"><path fill="#ffffff" stroke="none" d="M 332 320 C 332 305.6405952 389.9791184 294 461.5 294 C 533.0208815999999 294 591 305.6405952 591 320 C 591 334.3594048 533.0208815999999 346 461.5 346 C 389.9791184 346 332 334.3594048 332 320 Z"/></g><g transform="translate(-102,-70) scale(1,1)"><path fill="none" stroke="#000000" d="M 332 320 C 332 305.6405952 389.9791184 294 461.5 294 C 533.0208815999999 294 591 305.6405952 591 320 C 591 334.3594048 533.0208815999999 346 461.5 346 C 389.9791184 346 332 334.3594048 332 320 Z" stroke-miterlimit="10"/></g><g transform="translate(-102,-70) scale(1,1)"><g><path fill="none" stroke="none"/><text fill="#000000" stroke="none" font-family="Arial" font-size="13px" font-style="normal" font-weight="bold" text-decoration="none" x="406.21826171875" y="320.5">Inserire una stanza</text><text fill="#000000" stroke="none" font-family="Arial" font-size="13px" font-style="normal" font-weight="bold" text-decoration="none" x="436.9345703125" y="333.5">tematica</text></g></g><g transform="translate(-102,-70) scale(1,1)"><path fill="#C0C0C0" stroke="none" d="M 305 406 C 305 391.6405952 377.9775776 380 468 380 C 558.0224224 380 631 391.6405952 631 406 C 631 420.3594048 558.0224224 432 468 432 C 377.9775776 432 305 420.3594048 305 406 Z" opacity="0.2"/></g><g transform="translate(-102,-70) scale(1,1)"><path fill="#ffffff" stroke="none" d="M 298 399 C 298 384.6405952 370.9775776 373 461 373 C 551.0224224 373 624 384.6405952 624 399 C 624 413.3594048 551.0224224 425 461 425 C 370.9775776 425 298 413.3594048 298 399 Z"/></g><g transform="translate(-102,-70) scale(1,1)"><path fill="none" stroke="#000000" d="M 298 399 C 298 384.6405952 370.9775776 373 461 373 C 551.0224224 373 624 384.6405952 624 399 C 624 413.3594048 551.0224224 425 461 425 C 370.9775776 425 298 413.3594048 298 399 Z" stroke-miterlimit="10"/></g><g transform="translate(-102,-70) scale(1,1)"><g><path fill="none" stroke="none"/><text fill="#000000" stroke="none" font-family="Arial" font-size="13px" font-style="normal" font-weight="bold" text-decoration="none" x="379.346923828125" y="399.5">Inserire una stanza tematica</text><text fill="#000000" stroke="none" font-family="Arial" font-size="13px" font-style="normal" font-weight="bold" text-decoration="none" x="423.7900390625" y="412.5">temporizzata</text></g></g><g transform="translate(-102,-70) scale(1,1)"><path fill="none" stroke="#000000" d="M 163 408 L 272 248 L 402 189" stroke-miterlimit="10"/></g><g transform="translate(-102,-70) scale(1,1)"><path fill="none" stroke="#000000" d="M 163 424 L 280 320 L 399 268" stroke-miterlimit="10"/></g><g transform="translate(-102,-70) scale(1,1)"><path fill="none" stroke="#000000" d="M 163 434 L 280 376 L 374 347" stroke-miterlimit="10"/></g><g transform="translate(-102,-70) scale(1,1)"><path fill="none" stroke="#000000" d="M 163 443 L 297 423" stroke-miterlimit="10"/></g><g transform="translate(-102,-70) scale(1,1)"><path fill="none" stroke="#000000" d="M 163 450 L 379 470" stroke-miterlimit="10"/></g><g transform="translate(-102,-70) scale(1,1)"><path fill="none" stroke="#000000" d="M 163 457 L 363 530" stroke-miterlimit="10"/></g><g transform="translate(-102,-70) scale(1,1)"><path fill="none" stroke="#000000" d="M 163 470 L 296 584 L 398 628" stroke-miterlimit="10"/></g><g transform="translate(-102,-70) scale(1,1)"><path fill="none" stroke="#000000" d="M 148 488 L 240 832 L 395 895" stroke-miterlimit="10"/></g><g transform="translate(-102,-70) scale(1,1)"><path fill="#C0C0C0" stroke="none" d="M 373 736 C 373 726.6111584 415.532944 719 468 719 C 520.467056 719 563 726.6111584 563 736 C 563 745.3888416 520.467056 753 468 753 C 415.532944 753 373 745.3888416 373 736 Z" opacity="0.2"/></g><g transform="translate(-102,-70) scale(1,1)"><path fill="#ffffff" stroke="none" d="M 366 729 C 366 719.6111584 408.532944 712 461 712 C 513.467056 712 556 719.6111584 556 729 C 556 738.3888416 513.467056 746 461 746 C 408.532944 746 366 738.3888416 366 729 Z"/></g><g transform="translate(-102,-70) scale(1,1)"><path fill="none" stroke="#000000" d="M 366 729 C 366 719.6111584 408.532944 712 461 712 C 513.467056 712 556 719.6111584 556 729 C 556 738.3888416 513.467056 746 461 746 C 408.532944 746 366 738.3888416 366 729 Z" stroke-miterlimit="10"/></g><g transform="translate(-102,-70) scale(1,1)"><g><path fill="none" stroke="none"/><text fill="#000000" stroke="none" font-family="Arial" font-size="13px" font-style="normal" font-weight="bold" text-decoration="none" x="403.185546875" y="736">Login con nickname</text></g></g><g transform="translate(-102,-70) scale(1,1)"><path fill="#C0C0C0" stroke="none" d="M 367 792 C 367 782.6111584 412.2192352 775 468 775 C 523.7807648 775 569 782.6111584 569 792 C 569 801.3888416 523.7807648 809 468 809 C 412.2192352 809 367 801.3888416 367 792 Z" opacity="0.2"/></g><g transform="translate(-102,-70) scale(1,1)"><path fill="#ffffff" stroke="none" d="M 360 785 C 360 775.6111584 405.2192352 768 461 768 C 516.7807648 768 562 775.6111584 562 785 C 562 794.3888416 516.7807648 802 461 802 C 405.2192352 802 360 794.3888416 360 785 Z"/></g><g transform="translate(-102,-70) scale(1,1)"><path fill="none" stroke="#000000" d="M 360 785 C 360 775.6111584 405.2192352 768 461 768 C 516.7807648 768 562 775.6111584 562 785 C 562 794.3888416 516.7807648 802 461 802 C 405.2192352 802 360 794.3888416 360 785 Z" stroke-miterlimit="10"/></g><g transform="translate(-102,-70) scale(1,1)"><g><path fill="none" stroke="none"/><text fill="#000000" stroke="none" font-family="Arial" font-size="13px" font-style="normal" font-weight="bold" text-decoration="none" x="398.504150390625" y="792">Cambiare il nickname</text></g></g><g transform="translate(-102,-70) scale(1,1)"><path fill="none" stroke="#000000" d="M 163 485 L 264 632 L 424 711" stroke-miterlimit="10"/></g><g transform="translate(-102,-70) scale(1,1)"><path fill="none" stroke="#000000" d="M 156 488 L 248 688 L 421 767" stroke-miterlimit="10"/></g><g transform="translate(-102,-70) scale(1,1)"><path fill="#C0C0C0" stroke="none" d="M 324 857 C 324 842.6405952 388.4709888 831 468 831 C 547.5290112 831 612 842.6405952 612 857 C 612 871.3594048 547.5290112 883 468 883 C 388.4709888 883 324 871.3594048 324 857 Z" opacity="0.2"/></g><g transform="translate(-102,-70) scale(1,1)"><path fill="#ffffff" stroke="none" d="M 317 850 C 317 835.6405952 381.4709888 824 461 824 C 540.5290112 824 605 835.6405952 605 850 C 605 864.3594048 540.5290112 876 461 876 C 381.4709888 876 317 864.3594048 317 850 Z"/></g><g transform="translate(-102,-70) scale(1,1)"><path fill="none" stroke="#000000" d="M 317 850 C 317 835.6405952 381.4709888 824 461 824 C 540.5290112 824 605 835.6405952 605 850 C 605 864.3594048 540.5290112 876 461 876 C 381.4709888 876 317 864.3594048 317 850 Z" stroke-miterlimit="10"/></g><g transform="translate(-102,-70) scale(1,1)"><g><path fill="none" stroke="none"/><text fill="#000000" stroke="none" font-family="Arial" font-size="13px" font-style="normal" font-weight="bold" text-decoration="none" x="377.541015625" y="850.5">Entrare in una stanza tramite</text><text fill="#000000" stroke="none" font-family="Arial" font-size="13px" font-style="normal" font-weight="bold" text-decoration="none" x="442.2109375" y="863.5">codice</text></g></g><g transform="translate(-102,-70) scale(1,1)"><path fill="none" stroke="#000000" d="M 151 488 L 232 720 L 413 823" stroke-miterlimit="10"/></g></g></svg>